G75*
%MOIN*%
%OFA0B0*%
%FSLAX24Y24*%
%IPPOS*%
%LPD*%
%AMOC8*
5,1,8,0,0,1.08239X$1,22.5*
%
%ADD10C,0.0000*%
%ADD11C,0.0050*%
%ADD12C,0.0040*%
%ADD13C,0.0061*%
%ADD14C,0.0060*%
%ADD15C,0.0063*%
%ADD16C,0.0030*%
%ADD17C,0.0120*%
%ADD18C,0.0240*%
%ADD19R,0.0079X0.0079*%
%ADD20C,0.0080*%
D10*
X000100Y000550D02*
X000100Y014330D01*
X019391Y014330D01*
X019391Y000550D01*
X000100Y000550D01*
X000651Y001731D02*
X000653Y001781D01*
X000659Y001831D01*
X000669Y001880D01*
X000683Y001928D01*
X000700Y001975D01*
X000721Y002020D01*
X000746Y002064D01*
X000774Y002105D01*
X000806Y002144D01*
X000840Y002181D01*
X000877Y002215D01*
X000917Y002245D01*
X000959Y002272D01*
X001003Y002296D01*
X001049Y002317D01*
X001096Y002333D01*
X001144Y002346D01*
X001194Y002355D01*
X001243Y002360D01*
X001294Y002361D01*
X001344Y002358D01*
X001393Y002351D01*
X001442Y002340D01*
X001490Y002325D01*
X001536Y002307D01*
X001581Y002285D01*
X001624Y002259D01*
X001665Y002230D01*
X001704Y002198D01*
X001740Y002163D01*
X001772Y002125D01*
X001802Y002085D01*
X001829Y002042D01*
X001852Y001998D01*
X001871Y001952D01*
X001887Y001904D01*
X001899Y001855D01*
X001907Y001806D01*
X001911Y001756D01*
X001911Y001706D01*
X001907Y001656D01*
X001899Y001607D01*
X001887Y001558D01*
X001871Y001510D01*
X001852Y001464D01*
X001829Y001420D01*
X001802Y001377D01*
X001772Y001337D01*
X001740Y001299D01*
X001704Y001264D01*
X001665Y001232D01*
X001624Y001203D01*
X001581Y001177D01*
X001536Y001155D01*
X001490Y001137D01*
X001442Y001122D01*
X001393Y001111D01*
X001344Y001104D01*
X001294Y001101D01*
X001243Y001102D01*
X001194Y001107D01*
X001144Y001116D01*
X001096Y001129D01*
X001049Y001145D01*
X001003Y001166D01*
X000959Y001190D01*
X000917Y001217D01*
X000877Y001247D01*
X000840Y001281D01*
X000806Y001318D01*
X000774Y001357D01*
X000746Y001398D01*
X000721Y001442D01*
X000700Y001487D01*
X000683Y001534D01*
X000669Y001582D01*
X000659Y001631D01*
X000653Y001681D01*
X000651Y001731D01*
X011480Y011530D02*
X011482Y011509D01*
X011487Y011489D01*
X011496Y011470D01*
X011508Y011453D01*
X011523Y011438D01*
X011540Y011426D01*
X011559Y011417D01*
X011579Y011412D01*
X011600Y011410D01*
X011621Y011412D01*
X011641Y011417D01*
X011660Y011426D01*
X011677Y011438D01*
X011692Y011453D01*
X011704Y011470D01*
X011713Y011489D01*
X011718Y011509D01*
X011720Y011530D01*
X017580Y013148D02*
X017582Y013198D01*
X017588Y013248D01*
X017598Y013297D01*
X017612Y013345D01*
X017629Y013392D01*
X017650Y013437D01*
X017675Y013481D01*
X017703Y013522D01*
X017735Y013561D01*
X017769Y013598D01*
X017806Y013632D01*
X017846Y013662D01*
X017888Y013689D01*
X017932Y013713D01*
X017978Y013734D01*
X018025Y013750D01*
X018073Y013763D01*
X018123Y013772D01*
X018172Y013777D01*
X018223Y013778D01*
X018273Y013775D01*
X018322Y013768D01*
X018371Y013757D01*
X018419Y013742D01*
X018465Y013724D01*
X018510Y013702D01*
X018553Y013676D01*
X018594Y013647D01*
X018633Y013615D01*
X018669Y013580D01*
X018701Y013542D01*
X018731Y013502D01*
X018758Y013459D01*
X018781Y013415D01*
X018800Y013369D01*
X018816Y013321D01*
X018828Y013272D01*
X018836Y013223D01*
X018840Y013173D01*
X018840Y013123D01*
X018836Y013073D01*
X018828Y013024D01*
X018816Y012975D01*
X018800Y012927D01*
X018781Y012881D01*
X018758Y012837D01*
X018731Y012794D01*
X018701Y012754D01*
X018669Y012716D01*
X018633Y012681D01*
X018594Y012649D01*
X018553Y012620D01*
X018510Y012594D01*
X018465Y012572D01*
X018419Y012554D01*
X018371Y012539D01*
X018322Y012528D01*
X018273Y012521D01*
X018223Y012518D01*
X018172Y012519D01*
X018123Y012524D01*
X018073Y012533D01*
X018025Y012546D01*
X017978Y012562D01*
X017932Y012583D01*
X017888Y012607D01*
X017846Y012634D01*
X017806Y012664D01*
X017769Y012698D01*
X017735Y012735D01*
X017703Y012774D01*
X017675Y012815D01*
X017650Y012859D01*
X017629Y012904D01*
X017612Y012951D01*
X017598Y012999D01*
X017588Y013048D01*
X017582Y013098D01*
X017580Y013148D01*
X017580Y001731D02*
X017582Y001781D01*
X017588Y001831D01*
X017598Y001880D01*
X017612Y001928D01*
X017629Y001975D01*
X017650Y002020D01*
X017675Y002064D01*
X017703Y002105D01*
X017735Y002144D01*
X017769Y002181D01*
X017806Y002215D01*
X017846Y002245D01*
X017888Y002272D01*
X017932Y002296D01*
X017978Y002317D01*
X018025Y002333D01*
X018073Y002346D01*
X018123Y002355D01*
X018172Y002360D01*
X018223Y002361D01*
X018273Y002358D01*
X018322Y002351D01*
X018371Y002340D01*
X018419Y002325D01*
X018465Y002307D01*
X018510Y002285D01*
X018553Y002259D01*
X018594Y002230D01*
X018633Y002198D01*
X018669Y002163D01*
X018701Y002125D01*
X018731Y002085D01*
X018758Y002042D01*
X018781Y001998D01*
X018800Y001952D01*
X018816Y001904D01*
X018828Y001855D01*
X018836Y001806D01*
X018840Y001756D01*
X018840Y001706D01*
X018836Y001656D01*
X018828Y001607D01*
X018816Y001558D01*
X018800Y001510D01*
X018781Y001464D01*
X018758Y001420D01*
X018731Y001377D01*
X018701Y001337D01*
X018669Y001299D01*
X018633Y001264D01*
X018594Y001232D01*
X018553Y001203D01*
X018510Y001177D01*
X018465Y001155D01*
X018419Y001137D01*
X018371Y001122D01*
X018322Y001111D01*
X018273Y001104D01*
X018223Y001101D01*
X018172Y001102D01*
X018123Y001107D01*
X018073Y001116D01*
X018025Y001129D01*
X017978Y001145D01*
X017932Y001166D01*
X017888Y001190D01*
X017846Y001217D01*
X017806Y001247D01*
X017769Y001281D01*
X017735Y001318D01*
X017703Y001357D01*
X017675Y001398D01*
X017650Y001442D01*
X017629Y001487D01*
X017612Y001534D01*
X017598Y001582D01*
X017588Y001631D01*
X017582Y001681D01*
X017580Y001731D01*
X000651Y013148D02*
X000653Y013198D01*
X000659Y013248D01*
X000669Y013297D01*
X000683Y013345D01*
X000700Y013392D01*
X000721Y013437D01*
X000746Y013481D01*
X000774Y013522D01*
X000806Y013561D01*
X000840Y013598D01*
X000877Y013632D01*
X000917Y013662D01*
X000959Y013689D01*
X001003Y013713D01*
X001049Y013734D01*
X001096Y013750D01*
X001144Y013763D01*
X001194Y013772D01*
X001243Y013777D01*
X001294Y013778D01*
X001344Y013775D01*
X001393Y013768D01*
X001442Y013757D01*
X001490Y013742D01*
X001536Y013724D01*
X001581Y013702D01*
X001624Y013676D01*
X001665Y013647D01*
X001704Y013615D01*
X001740Y013580D01*
X001772Y013542D01*
X001802Y013502D01*
X001829Y013459D01*
X001852Y013415D01*
X001871Y013369D01*
X001887Y013321D01*
X001899Y013272D01*
X001907Y013223D01*
X001911Y013173D01*
X001911Y013123D01*
X001907Y013073D01*
X001899Y013024D01*
X001887Y012975D01*
X001871Y012927D01*
X001852Y012881D01*
X001829Y012837D01*
X001802Y012794D01*
X001772Y012754D01*
X001740Y012716D01*
X001704Y012681D01*
X001665Y012649D01*
X001624Y012620D01*
X001581Y012594D01*
X001536Y012572D01*
X001490Y012554D01*
X001442Y012539D01*
X001393Y012528D01*
X001344Y012521D01*
X001294Y012518D01*
X001243Y012519D01*
X001194Y012524D01*
X001144Y012533D01*
X001096Y012546D01*
X001049Y012562D01*
X001003Y012583D01*
X000959Y012607D01*
X000917Y012634D01*
X000877Y012664D01*
X000840Y012698D01*
X000806Y012735D01*
X000774Y012774D01*
X000746Y012815D01*
X000721Y012859D01*
X000700Y012904D01*
X000683Y012951D01*
X000669Y012999D01*
X000659Y013048D01*
X000653Y013098D01*
X000651Y013148D01*
D11*
X001660Y013757D02*
X001835Y013757D01*
X001894Y013815D01*
X001894Y014049D01*
X001835Y014107D01*
X001660Y014107D01*
X001660Y013757D01*
X002028Y013815D02*
X002028Y013932D01*
X002087Y013990D01*
X002204Y013990D01*
X002262Y013932D01*
X002262Y013874D01*
X002028Y013874D01*
X002028Y013815D02*
X002087Y013757D01*
X002204Y013757D01*
X002455Y013815D02*
X002455Y014049D01*
X002397Y013990D02*
X002514Y013990D01*
X002642Y013932D02*
X002642Y013815D01*
X002701Y013757D01*
X002817Y013757D01*
X002876Y013874D02*
X002642Y013874D01*
X002642Y013932D02*
X002701Y013990D01*
X002817Y013990D01*
X002876Y013932D01*
X002876Y013874D01*
X003011Y013932D02*
X003011Y013815D01*
X003069Y013757D01*
X003244Y013757D01*
X003437Y013815D02*
X003437Y014049D01*
X003379Y013990D02*
X003496Y013990D01*
X003625Y013932D02*
X003858Y013932D01*
X003993Y013932D02*
X004051Y013990D01*
X004168Y013990D01*
X004226Y013932D01*
X004226Y013874D01*
X003993Y013874D01*
X003993Y013932D02*
X003993Y013815D01*
X004051Y013757D01*
X004168Y013757D01*
X004361Y013815D02*
X004420Y013874D01*
X004595Y013874D01*
X004595Y013932D02*
X004595Y013757D01*
X004420Y013757D01*
X004361Y013815D01*
X004420Y013990D02*
X004536Y013990D01*
X004595Y013932D01*
X004729Y013990D02*
X004846Y013990D01*
X004788Y014049D02*
X004788Y013815D01*
X004846Y013757D01*
X004925Y013625D02*
X005075Y013775D01*
X005075Y013325D01*
X004925Y013325D02*
X005225Y013325D01*
X004190Y013390D02*
X004015Y013390D01*
X003957Y013332D01*
X003957Y013215D01*
X004015Y013157D01*
X004190Y013157D01*
X004190Y013507D01*
X003825Y013390D02*
X003767Y013390D01*
X003650Y013274D01*
X003650Y013390D02*
X003650Y013157D01*
X003515Y013157D02*
X003340Y013157D01*
X003281Y013215D01*
X003340Y013274D01*
X003515Y013274D01*
X003515Y013332D02*
X003515Y013157D01*
X003515Y013332D02*
X003457Y013390D01*
X003340Y013390D01*
X003147Y013332D02*
X003088Y013390D01*
X002972Y013390D01*
X002913Y013332D01*
X002913Y013215D01*
X002972Y013157D01*
X003088Y013157D01*
X003147Y013215D01*
X003147Y013332D01*
X002778Y013274D02*
X002778Y013215D01*
X002720Y013157D01*
X002545Y013157D01*
X002545Y013507D01*
X002720Y013507D01*
X002778Y013449D01*
X002778Y013390D01*
X002720Y013332D01*
X002545Y013332D01*
X002720Y013332D02*
X002778Y013274D01*
X002514Y013757D02*
X002455Y013815D01*
X003011Y013932D02*
X003069Y013990D01*
X003244Y013990D01*
X003437Y013815D02*
X003496Y013757D01*
X003625Y013757D02*
X003625Y014107D01*
X003858Y014107D02*
X003858Y013757D01*
X006375Y012767D02*
X006375Y012709D01*
X006433Y012650D01*
X006550Y012650D01*
X006609Y012592D01*
X006609Y012533D01*
X006550Y012475D01*
X006433Y012475D01*
X006375Y012533D01*
X006375Y012767D02*
X006433Y012825D01*
X006550Y012825D01*
X006609Y012767D01*
X006743Y012825D02*
X006743Y012592D01*
X006860Y012475D01*
X006977Y012592D01*
X006977Y012825D01*
X007112Y012767D02*
X007170Y012825D01*
X007287Y012825D01*
X007345Y012767D01*
X007345Y012709D01*
X007287Y012650D01*
X007345Y012592D01*
X007345Y012533D01*
X007287Y012475D01*
X007170Y012475D01*
X007112Y012533D01*
X007228Y012650D02*
X007287Y012650D01*
X007701Y012557D02*
X007701Y011769D01*
X009276Y011769D01*
X009276Y012557D01*
X007701Y012557D01*
X008414Y012681D02*
X008414Y013032D01*
X008589Y013032D01*
X008647Y012973D01*
X008647Y012856D01*
X008589Y012798D01*
X008414Y012798D01*
X008531Y012798D02*
X008647Y012681D01*
X008782Y012740D02*
X008840Y012681D01*
X008957Y012681D01*
X009016Y012740D01*
X009016Y012798D01*
X008957Y012856D01*
X008899Y012856D01*
X008957Y012856D02*
X009016Y012915D01*
X009016Y012973D01*
X008957Y013032D01*
X008840Y013032D01*
X008782Y012973D01*
X008850Y013325D02*
X008700Y013325D01*
X008625Y013400D01*
X008775Y013550D02*
X008850Y013550D01*
X008925Y013475D01*
X008925Y013400D01*
X008850Y013325D01*
X008850Y013550D02*
X008925Y013625D01*
X008925Y013700D01*
X008850Y013775D01*
X008700Y013775D01*
X008625Y013700D01*
X009724Y013878D02*
X009724Y013222D01*
X011198Y013222D01*
X011198Y013878D01*
X009724Y013878D01*
X010125Y013050D02*
X010066Y012992D01*
X010066Y012758D01*
X010125Y012700D01*
X010241Y012700D01*
X010300Y012758D01*
X010435Y012700D02*
X010668Y012700D01*
X010551Y012700D02*
X010551Y013050D01*
X010435Y012934D01*
X010300Y012992D02*
X010241Y013050D01*
X010125Y013050D01*
X009761Y012569D02*
X011061Y012569D01*
X011061Y012568D02*
X011071Y012567D01*
X011081Y012563D01*
X011089Y012557D01*
X011095Y012549D01*
X011099Y012539D01*
X011100Y012529D01*
X011100Y011821D01*
X011099Y011811D01*
X011095Y011802D01*
X011089Y011793D01*
X011081Y011787D01*
X011071Y011783D01*
X011061Y011782D01*
X011061Y011781D02*
X009761Y011781D01*
X009746Y011783D01*
X009731Y011787D01*
X009717Y011794D01*
X009705Y011804D01*
X009695Y011816D01*
X009688Y011830D01*
X009684Y011845D01*
X009682Y011860D01*
X009683Y011860D02*
X009683Y012490D01*
X009682Y012490D02*
X009684Y012505D01*
X009688Y012520D01*
X009695Y012534D01*
X009705Y012546D01*
X009717Y012556D01*
X009731Y012563D01*
X009746Y012567D01*
X009761Y012569D01*
X011563Y012569D02*
X011563Y011781D01*
X013137Y011781D01*
X013137Y012569D01*
X011563Y012569D01*
X011975Y012700D02*
X011975Y013050D01*
X012150Y013050D01*
X012209Y012992D01*
X012209Y012875D01*
X012150Y012817D01*
X011975Y012817D01*
X012092Y012817D02*
X012209Y012700D01*
X012343Y012700D02*
X012577Y012934D01*
X012577Y012992D01*
X012518Y013050D01*
X012402Y013050D01*
X012343Y012992D01*
X012343Y012700D02*
X012577Y012700D01*
X013110Y013156D02*
X013110Y013944D01*
X011535Y013944D01*
X011535Y013156D01*
X013110Y013156D01*
X014340Y014019D02*
X014340Y010081D01*
X016860Y010081D01*
X016860Y014019D01*
X014340Y014019D01*
X017902Y010457D02*
X018135Y010457D01*
X018019Y010457D02*
X018019Y010107D01*
X018145Y009957D02*
X018145Y009607D01*
X018145Y009782D02*
X018379Y009782D01*
X018379Y009957D02*
X018379Y009607D01*
X018513Y009665D02*
X018572Y009607D01*
X018689Y009607D01*
X018747Y009665D01*
X018747Y009899D01*
X018689Y009957D01*
X018572Y009957D01*
X018513Y009899D01*
X018513Y009665D01*
X018882Y009957D02*
X019115Y009957D01*
X018998Y009957D02*
X018998Y009607D01*
X019007Y010107D02*
X019007Y010457D01*
X019182Y010457D01*
X019240Y010399D01*
X019240Y010282D01*
X019182Y010224D01*
X019007Y010224D01*
X018872Y010107D02*
X018872Y010457D01*
X018755Y010340D01*
X018638Y010457D01*
X018638Y010107D01*
X018504Y010107D02*
X018270Y010107D01*
X018270Y010457D01*
X018504Y010457D01*
X018387Y010282D02*
X018270Y010282D01*
X016202Y009627D02*
X015969Y009627D01*
X016085Y009627D02*
X016085Y009977D01*
X015969Y009860D01*
X015834Y009977D02*
X015834Y009627D01*
X015717Y009743D01*
X015600Y009627D01*
X015600Y009977D01*
X015466Y009919D02*
X015407Y009977D01*
X015290Y009977D01*
X015232Y009919D01*
X015232Y009860D01*
X015290Y009802D01*
X015407Y009802D01*
X015466Y009743D01*
X015466Y009685D01*
X015407Y009627D01*
X015290Y009627D01*
X015232Y009685D01*
X012437Y008085D02*
X012203Y008085D01*
X012320Y008085D02*
X012320Y008435D01*
X012203Y008319D01*
X012069Y008435D02*
X012069Y008143D01*
X012010Y008085D01*
X011893Y008085D01*
X011835Y008143D01*
X011835Y008435D01*
X014866Y004893D02*
X015041Y004893D01*
X015099Y004835D01*
X015099Y004718D01*
X015041Y004660D01*
X014866Y004660D01*
X014866Y004543D02*
X014866Y004893D01*
X015234Y004777D02*
X015292Y004777D01*
X015292Y004543D01*
X015234Y004543D02*
X015351Y004543D01*
X015479Y004601D02*
X015538Y004543D01*
X015655Y004543D01*
X015713Y004660D02*
X015479Y004660D01*
X015479Y004718D02*
X015538Y004777D01*
X015655Y004777D01*
X015713Y004718D01*
X015713Y004660D01*
X015848Y004777D02*
X016081Y004777D01*
X015848Y004543D01*
X016081Y004543D01*
X016216Y004601D02*
X016274Y004543D01*
X016391Y004543D01*
X016450Y004601D01*
X016450Y004718D01*
X016391Y004777D01*
X016274Y004777D01*
X016216Y004718D01*
X016216Y004601D01*
X015959Y004293D02*
X015959Y003943D01*
X015783Y003943D01*
X015725Y004001D01*
X015725Y004118D01*
X015783Y004177D01*
X015959Y004177D01*
X016093Y004177D02*
X016093Y004001D01*
X016152Y003943D01*
X016327Y003943D01*
X016327Y004177D01*
X016462Y004118D02*
X016462Y004001D01*
X016520Y003943D01*
X016695Y003943D01*
X016830Y004001D02*
X016830Y004118D01*
X016888Y004177D01*
X017005Y004177D01*
X017063Y004118D01*
X017063Y004060D01*
X016830Y004060D01*
X016830Y004001D02*
X016888Y003943D01*
X017005Y003943D01*
X017198Y003943D02*
X017198Y004177D01*
X017198Y004060D02*
X017315Y004177D01*
X017373Y004177D01*
X016695Y004177D02*
X016520Y004177D01*
X016462Y004118D01*
X015590Y004177D02*
X015415Y004177D01*
X015357Y004118D01*
X015415Y004060D01*
X015532Y004060D01*
X015590Y004001D01*
X015532Y003943D01*
X015357Y003943D01*
X015222Y003943D02*
X015222Y004118D01*
X015164Y004177D01*
X014988Y004177D01*
X014988Y003943D01*
X014854Y003943D02*
X014854Y004118D01*
X014795Y004177D01*
X014678Y004177D01*
X014678Y004060D02*
X014854Y004060D01*
X014854Y003943D02*
X014678Y003943D01*
X014620Y004001D01*
X014678Y004060D01*
X014488Y004177D02*
X014430Y004177D01*
X014313Y004060D01*
X014313Y003943D02*
X014313Y004177D01*
X014178Y004293D02*
X013945Y004293D01*
X014062Y004293D02*
X014062Y003943D01*
X015292Y004893D02*
X015292Y004952D01*
X015479Y004718D02*
X015479Y004601D01*
X015459Y002543D02*
X015459Y002251D01*
X015400Y002193D01*
X015283Y002193D01*
X015225Y002251D01*
X015225Y002543D01*
X015593Y002427D02*
X015593Y002193D01*
X015593Y002368D02*
X015827Y002368D01*
X015827Y002427D02*
X015827Y002193D01*
X015962Y002193D02*
X015962Y002543D01*
X016137Y002543D01*
X016195Y002485D01*
X016195Y002368D01*
X016137Y002310D01*
X015962Y002310D01*
X016078Y002310D02*
X016195Y002193D01*
X016447Y002193D02*
X016447Y002543D01*
X016563Y002543D02*
X016330Y002543D01*
X015827Y002427D02*
X015710Y002543D01*
X015593Y002427D01*
X016625Y001700D02*
X016700Y001775D01*
X016850Y001775D01*
X016925Y001700D01*
X016925Y001625D01*
X016850Y001550D01*
X016925Y001475D01*
X016925Y001400D01*
X016850Y001325D01*
X016700Y001325D01*
X016625Y001400D01*
X016775Y001550D02*
X016850Y001550D01*
X014345Y002225D02*
X014112Y002225D01*
X014345Y002459D01*
X014345Y002517D01*
X014287Y002575D01*
X014170Y002575D01*
X014112Y002517D01*
X013977Y002575D02*
X013977Y002342D01*
X013860Y002225D01*
X013743Y002342D01*
X013743Y002575D01*
X013609Y002517D02*
X013550Y002575D01*
X013433Y002575D01*
X013375Y002517D01*
X013375Y002459D01*
X013433Y002400D01*
X013550Y002400D01*
X013609Y002342D01*
X013609Y002283D01*
X013550Y002225D01*
X013433Y002225D01*
X013375Y002283D01*
X013075Y001775D02*
X013075Y001325D01*
X012925Y001325D02*
X013225Y001325D01*
X012925Y001625D02*
X013075Y001775D01*
X012571Y001686D02*
X012164Y001686D01*
X012164Y001075D01*
X012164Y001380D02*
X012367Y001380D01*
X011963Y001686D02*
X011556Y001686D01*
X011556Y001075D01*
X011355Y001177D02*
X011355Y001584D01*
X011253Y001686D01*
X011050Y001686D01*
X010948Y001584D01*
X010948Y001177D01*
X011050Y001075D01*
X011253Y001075D01*
X011355Y001177D01*
X011556Y001380D02*
X011759Y001380D01*
X010747Y001380D02*
X010340Y001380D01*
X010140Y001075D02*
X010140Y001686D01*
X009733Y001686D02*
X010140Y001075D01*
X009733Y001075D02*
X009733Y001686D01*
X009532Y001584D02*
X009430Y001686D01*
X009227Y001686D01*
X009125Y001584D01*
X009125Y001177D01*
X009227Y001075D01*
X009430Y001075D01*
X009532Y001177D01*
X009532Y001584D01*
X008881Y000623D02*
X008881Y003792D01*
X012819Y003792D01*
X012819Y000623D01*
X008881Y000623D01*
X007900Y002175D02*
X007750Y002175D01*
X007675Y002250D01*
X007675Y002400D01*
X007900Y002400D01*
X007975Y002325D01*
X007975Y002250D01*
X007900Y002175D01*
X007675Y002400D02*
X007825Y002550D01*
X007975Y002625D01*
X008637Y002656D02*
X008637Y003444D01*
X007063Y003444D01*
X007063Y002656D01*
X008637Y002656D01*
X008637Y003781D02*
X007063Y003781D01*
X007063Y004569D01*
X008637Y004569D01*
X008637Y003781D01*
X006852Y004125D02*
X006618Y004125D01*
X006793Y004300D01*
X006793Y003950D01*
X006484Y003950D02*
X006367Y004067D01*
X006425Y004067D02*
X006250Y004067D01*
X006250Y003950D02*
X006250Y004300D01*
X006425Y004300D01*
X006484Y004242D01*
X006484Y004125D01*
X006425Y004067D01*
X005850Y004300D02*
X005850Y002800D01*
X003350Y002800D01*
X003350Y004300D01*
X002825Y002625D02*
X002825Y002175D01*
X002675Y002175D02*
X002975Y002175D01*
X002675Y002475D02*
X002825Y002625D01*
X001470Y005075D02*
X001237Y005075D01*
X001353Y005075D02*
X001353Y005425D01*
X001237Y005309D01*
X001102Y005250D02*
X000868Y005250D01*
X000734Y005250D02*
X000734Y005367D01*
X000675Y005425D01*
X000500Y005425D01*
X000500Y005075D01*
X000500Y005192D02*
X000675Y005192D01*
X000734Y005250D01*
X000868Y005075D02*
X000868Y005425D01*
X001102Y005425D02*
X001102Y005075D01*
X003850Y007800D02*
X004350Y007800D01*
X004100Y008050D02*
X004100Y007550D01*
X000300Y008400D02*
X000302Y008531D01*
X000308Y008661D01*
X000318Y008791D01*
X000332Y008921D01*
X000349Y009050D01*
X000371Y009179D01*
X000397Y009307D01*
X000426Y009434D01*
X000459Y009560D01*
X000497Y009685D01*
X000537Y009809D01*
X000582Y009932D01*
X000630Y010053D01*
X000682Y010173D01*
X000738Y010291D01*
X000797Y010407D01*
X000860Y010522D01*
X000926Y010634D01*
X000995Y010745D01*
X001068Y010853D01*
X001144Y010959D01*
X001224Y011063D01*
X001306Y011164D01*
X001391Y011263D01*
X001480Y011359D01*
X001571Y011452D01*
X001665Y011543D01*
X001762Y011630D01*
X001861Y011715D01*
X001963Y011796D01*
X002067Y011875D01*
X002174Y011950D01*
X002283Y012022D01*
X002394Y012091D01*
X002507Y012156D01*
X002622Y012218D01*
X002739Y012276D01*
X002857Y012331D01*
X002977Y012382D01*
X003099Y012429D01*
X003222Y012473D01*
X003346Y012513D01*
X003471Y012549D01*
X003598Y012582D01*
X003725Y012610D01*
X003853Y012635D01*
X003982Y012655D01*
X004112Y012672D01*
X004241Y012685D01*
X004372Y012694D01*
X004502Y012699D01*
X004633Y012700D01*
X004763Y012697D01*
X004893Y012690D01*
X005024Y012679D01*
X005153Y012664D01*
X005282Y012646D01*
X005411Y012623D01*
X005539Y012596D01*
X005666Y012566D01*
X005792Y012532D01*
X005916Y012494D01*
X006040Y012452D01*
X006162Y012406D01*
X006283Y012357D01*
X006402Y012304D01*
X006520Y012247D01*
X006636Y012187D01*
X006750Y012124D01*
X006862Y012057D01*
X006972Y011987D01*
X007080Y011913D01*
X007185Y011836D01*
X007288Y011756D01*
X007389Y011673D01*
X007487Y011587D01*
X007582Y011498D01*
X007675Y011406D01*
X007765Y011311D01*
X007852Y011214D01*
X007936Y011114D01*
X008016Y011011D01*
X008094Y010906D01*
X008169Y010799D01*
X008240Y010690D01*
X008307Y010578D01*
X008372Y010465D01*
X008433Y010349D01*
X008490Y010232D01*
X008544Y010113D01*
X008594Y009993D01*
X008641Y009871D01*
X008683Y009747D01*
X008722Y009623D01*
X008758Y009497D01*
X008789Y009370D01*
X008817Y009243D01*
X008840Y009115D01*
X008860Y008986D01*
X008876Y008856D01*
X008888Y008726D01*
X008896Y008596D01*
X008900Y008465D01*
X008900Y008335D01*
X008896Y008204D01*
X008888Y008074D01*
X008876Y007944D01*
X008860Y007814D01*
X008840Y007685D01*
X008817Y007557D01*
X008789Y007430D01*
X008758Y007303D01*
X008722Y007177D01*
X008683Y007053D01*
X008641Y006929D01*
X008594Y006807D01*
X008544Y006687D01*
X008490Y006568D01*
X008433Y006451D01*
X008372Y006335D01*
X008307Y006222D01*
X008240Y006110D01*
X008169Y006001D01*
X008094Y005894D01*
X008016Y005789D01*
X007936Y005686D01*
X007852Y005586D01*
X007765Y005489D01*
X007675Y005394D01*
X007582Y005302D01*
X007487Y005213D01*
X007389Y005127D01*
X007288Y005044D01*
X007185Y004964D01*
X007080Y004887D01*
X006972Y004813D01*
X006862Y004743D01*
X006750Y004676D01*
X006636Y004613D01*
X006520Y004553D01*
X006402Y004496D01*
X006283Y004443D01*
X006162Y004394D01*
X006040Y004348D01*
X005916Y004306D01*
X005792Y004268D01*
X005666Y004234D01*
X005539Y004204D01*
X005411Y004177D01*
X005282Y004154D01*
X005153Y004136D01*
X005024Y004121D01*
X004893Y004110D01*
X004763Y004103D01*
X004633Y004100D01*
X004502Y004101D01*
X004372Y004106D01*
X004241Y004115D01*
X004112Y004128D01*
X003982Y004145D01*
X003853Y004165D01*
X003725Y004190D01*
X003598Y004218D01*
X003471Y004251D01*
X003346Y004287D01*
X003222Y004327D01*
X003099Y004371D01*
X002977Y004418D01*
X002857Y004469D01*
X002739Y004524D01*
X002622Y004582D01*
X002507Y004644D01*
X002394Y004709D01*
X002283Y004778D01*
X002174Y004850D01*
X002067Y004925D01*
X001963Y005004D01*
X001861Y005085D01*
X001762Y005170D01*
X001665Y005257D01*
X001571Y005348D01*
X001480Y005441D01*
X001391Y005537D01*
X001306Y005636D01*
X001224Y005737D01*
X001144Y005841D01*
X001068Y005947D01*
X000995Y006055D01*
X000926Y006166D01*
X000860Y006278D01*
X000797Y006393D01*
X000738Y006509D01*
X000682Y006627D01*
X000630Y006747D01*
X000582Y006868D01*
X000537Y006991D01*
X000497Y007115D01*
X000459Y007240D01*
X000426Y007366D01*
X000397Y007493D01*
X000371Y007621D01*
X000349Y007750D01*
X000332Y007879D01*
X000318Y008009D01*
X000308Y008139D01*
X000302Y008269D01*
X000300Y008400D01*
X001675Y009443D02*
X001675Y009793D01*
X001850Y009793D01*
X001909Y009735D01*
X001909Y009618D01*
X001850Y009560D01*
X001675Y009560D01*
X001792Y009560D02*
X001909Y009443D01*
X002043Y009501D02*
X002043Y009618D01*
X002102Y009677D01*
X002218Y009677D01*
X002277Y009618D01*
X002277Y009560D01*
X002043Y009560D01*
X002043Y009501D02*
X002102Y009443D01*
X002218Y009443D01*
X002412Y009677D02*
X002528Y009443D01*
X002645Y009677D01*
X002780Y009501D02*
X002838Y009501D01*
X002838Y009443D01*
X002780Y009443D01*
X002780Y009501D01*
X002964Y009443D02*
X003139Y009443D01*
X003198Y009501D01*
X003198Y009560D01*
X003139Y009618D01*
X002964Y009618D01*
X002964Y009443D02*
X002964Y009793D01*
X003139Y009793D01*
X003198Y009735D01*
X003198Y009677D01*
X003139Y009618D01*
X003085Y009957D02*
X003085Y010132D01*
X003027Y010190D01*
X002969Y010132D01*
X002969Y009957D01*
X002852Y009957D02*
X002852Y010190D01*
X002910Y010190D01*
X002969Y010132D01*
X002717Y010015D02*
X002717Y010249D01*
X002659Y010307D01*
X002542Y010307D01*
X002483Y010249D01*
X002483Y010015D01*
X002542Y009957D01*
X002659Y009957D01*
X002717Y010015D01*
X002349Y009899D02*
X002115Y009899D01*
X001980Y010015D02*
X001922Y009957D01*
X001805Y009957D01*
X001747Y010015D01*
X001747Y010249D01*
X001805Y010307D01*
X001922Y010307D01*
X001980Y010249D01*
X002043Y010493D02*
X002277Y010493D01*
X002160Y010493D02*
X002160Y010843D01*
X002043Y010727D01*
X001909Y010785D02*
X001909Y010551D01*
X001850Y010493D01*
X001733Y010493D01*
X001675Y010551D01*
X001909Y010785D01*
X001850Y010843D01*
X001733Y010843D01*
X001675Y010785D01*
X001675Y010551D01*
X001618Y010366D02*
X001618Y010307D01*
X001618Y010190D02*
X001618Y009899D01*
X001560Y009840D01*
X001501Y009840D01*
X002412Y010493D02*
X002645Y010843D01*
X002780Y010785D02*
X002838Y010843D01*
X002955Y010843D01*
X003013Y010785D01*
X003013Y010727D01*
X002780Y010493D01*
X003013Y010493D01*
X003148Y010551D02*
X003382Y010785D01*
X003382Y010551D01*
X003323Y010493D01*
X003207Y010493D01*
X003148Y010551D01*
X003148Y010785D01*
X003207Y010843D01*
X003323Y010843D01*
X003382Y010785D01*
X003517Y010727D02*
X003633Y010843D01*
X003633Y010493D01*
X003517Y010493D02*
X003750Y010493D01*
X003885Y010668D02*
X004118Y010668D01*
X004060Y010493D02*
X004060Y010843D01*
X003885Y010668D01*
X003822Y010190D02*
X003647Y010190D01*
X003588Y010132D01*
X003588Y010015D01*
X003647Y009957D01*
X003822Y009957D01*
X003822Y009899D02*
X003822Y010190D01*
X004015Y010190D02*
X004132Y010190D01*
X004190Y010132D01*
X004190Y009957D01*
X004015Y009957D01*
X003957Y010015D01*
X004015Y010074D01*
X004190Y010074D01*
X003822Y009899D02*
X003764Y009840D01*
X003705Y009840D01*
X003454Y010074D02*
X003220Y010074D01*
X003220Y010132D02*
X003220Y010015D01*
X003278Y009957D01*
X003395Y009957D01*
X003454Y010074D02*
X003454Y010132D01*
X003395Y010190D01*
X003278Y010190D01*
X003220Y010132D01*
X006250Y003300D02*
X006425Y003300D01*
X006484Y003242D01*
X006484Y003125D01*
X006425Y003067D01*
X006250Y003067D01*
X006367Y003067D02*
X006484Y002950D01*
X006618Y003008D02*
X006618Y003125D01*
X006793Y003125D01*
X006852Y003067D01*
X006852Y003008D01*
X006793Y002950D01*
X006677Y002950D01*
X006618Y003008D01*
X006618Y003125D02*
X006735Y003242D01*
X006852Y003300D01*
X006250Y003300D02*
X006250Y002950D01*
D12*
X006207Y000968D02*
X006114Y000968D01*
X006161Y000968D02*
X006161Y000688D01*
X006207Y000688D02*
X006114Y000688D01*
X006006Y000828D02*
X005959Y000782D01*
X005819Y000782D01*
X005819Y000688D02*
X005819Y000968D01*
X005959Y000968D01*
X006006Y000922D01*
X006006Y000828D01*
X006310Y000735D02*
X006357Y000688D01*
X006450Y000688D01*
X006497Y000735D01*
X006497Y000922D02*
X006450Y000968D01*
X006357Y000968D01*
X006310Y000922D01*
X006310Y000735D01*
X005417Y000688D02*
X005277Y000688D01*
X005230Y000735D01*
X005230Y000828D01*
X005277Y000875D01*
X005417Y000875D01*
X005417Y000641D01*
X005370Y000595D01*
X005323Y000595D01*
X005122Y000735D02*
X005122Y000828D01*
X005075Y000875D01*
X004982Y000875D01*
X004935Y000828D01*
X004935Y000735D01*
X004982Y000688D01*
X005075Y000688D01*
X005122Y000735D01*
X004830Y000875D02*
X004783Y000875D01*
X004690Y000782D01*
X004690Y000875D02*
X004690Y000688D01*
X004582Y000828D02*
X004535Y000782D01*
X004395Y000782D01*
X004395Y000688D02*
X004395Y000968D01*
X004535Y000968D01*
X004582Y000922D01*
X004582Y000828D01*
X004097Y002170D02*
X003857Y002170D01*
X003977Y002170D02*
X003977Y002530D01*
X003857Y002410D01*
X003729Y002290D02*
X003729Y002530D01*
X003729Y002290D02*
X003608Y002170D01*
X003488Y002290D01*
X003488Y002530D01*
X003360Y002470D02*
X003300Y002530D01*
X003180Y002530D01*
X003120Y002470D01*
X003120Y002410D01*
X003180Y002350D01*
X003300Y002350D01*
X003360Y002290D01*
X003360Y002230D01*
X003300Y002170D01*
X003180Y002170D01*
X003120Y002230D01*
X003118Y005070D02*
X003271Y005070D01*
X003348Y005147D01*
X003501Y005223D02*
X003731Y005223D01*
X003808Y005300D01*
X003808Y005454D01*
X003731Y005530D01*
X003501Y005530D01*
X003501Y005070D01*
X003655Y005223D02*
X003808Y005070D01*
X003962Y005070D02*
X004268Y005377D01*
X004268Y005454D01*
X004192Y005530D01*
X004038Y005530D01*
X003962Y005454D01*
X003885Y005820D02*
X003731Y005820D01*
X003655Y005897D01*
X003655Y006050D01*
X003731Y006127D01*
X003885Y006127D01*
X003962Y006050D01*
X003962Y005973D01*
X003655Y005973D01*
X003501Y005820D02*
X003424Y005897D01*
X003424Y006204D01*
X003348Y006127D02*
X003501Y006127D01*
X003194Y006127D02*
X003041Y006127D01*
X003118Y006204D02*
X003118Y005897D01*
X003194Y005820D01*
X003118Y005530D02*
X003041Y005454D01*
X003041Y005147D01*
X003118Y005070D01*
X003348Y005454D02*
X003271Y005530D01*
X003118Y005530D01*
X002887Y005820D02*
X002657Y005820D01*
X002580Y005897D01*
X002657Y005973D01*
X002887Y005973D01*
X002887Y006050D02*
X002887Y005820D01*
X002887Y006050D02*
X002811Y006127D01*
X002657Y006127D01*
X002427Y006127D02*
X002350Y006050D01*
X002120Y006050D01*
X002120Y005820D02*
X002350Y005820D01*
X002427Y005897D01*
X002427Y005973D01*
X002350Y006050D01*
X002427Y006127D02*
X002427Y006204D01*
X002350Y006280D01*
X002120Y006280D01*
X002120Y005820D01*
X003962Y005070D02*
X004268Y005070D01*
X004422Y005147D02*
X004729Y005454D01*
X004729Y005147D01*
X004652Y005070D01*
X004499Y005070D01*
X004422Y005147D01*
X004422Y005454D01*
X004499Y005530D01*
X004652Y005530D01*
X004729Y005454D01*
X004882Y005454D02*
X004959Y005530D01*
X005113Y005530D01*
X005189Y005454D01*
X005189Y005377D01*
X005113Y005300D01*
X005189Y005223D01*
X005189Y005147D01*
X005113Y005070D01*
X004959Y005070D01*
X004882Y005147D01*
X005036Y005300D02*
X005113Y005300D01*
X005343Y005454D02*
X005419Y005530D01*
X005573Y005530D01*
X005650Y005454D01*
X005650Y005377D01*
X005343Y005070D01*
X005650Y005070D01*
X005726Y005820D02*
X005726Y006280D01*
X005726Y006050D02*
X005419Y006050D01*
X005419Y005820D02*
X005419Y006280D01*
X005880Y006050D02*
X005880Y005897D01*
X005957Y005820D01*
X006110Y005820D01*
X006187Y005897D01*
X006187Y006050D01*
X006110Y006127D01*
X005957Y006127D01*
X005880Y006050D01*
X006340Y005820D02*
X006494Y005820D01*
X006417Y005820D02*
X006417Y006280D01*
X006340Y006280D01*
X006647Y006050D02*
X006647Y005897D01*
X006724Y005820D01*
X006954Y005820D01*
X006954Y006280D01*
X006954Y006127D02*
X006724Y006127D01*
X006647Y006050D01*
X007108Y006050D02*
X007108Y005897D01*
X007184Y005820D01*
X007338Y005820D01*
X007415Y005973D02*
X007108Y005973D01*
X007108Y006050D02*
X007184Y006127D01*
X007338Y006127D01*
X007415Y006050D01*
X007415Y005973D01*
X007568Y005973D02*
X007721Y006127D01*
X007798Y006127D01*
X007568Y006127D02*
X007568Y005820D01*
X008120Y005275D02*
X008120Y005088D01*
X008213Y004995D01*
X008307Y005088D01*
X008307Y005275D01*
X008415Y005229D02*
X008415Y005042D01*
X008461Y004995D01*
X008555Y004995D01*
X008601Y005042D01*
X008709Y005042D02*
X008756Y004995D01*
X008849Y004995D01*
X008896Y005042D01*
X009004Y004948D02*
X009191Y004948D01*
X009299Y004995D02*
X009392Y004995D01*
X009345Y004995D02*
X009345Y005275D01*
X009299Y005275D02*
X009392Y005275D01*
X009495Y005275D02*
X009682Y004995D01*
X009682Y005275D01*
X009495Y005275D02*
X009495Y004995D01*
X008896Y005229D02*
X008849Y005275D01*
X008756Y005275D01*
X008709Y005229D01*
X008709Y005042D01*
X008601Y005229D02*
X008555Y005275D01*
X008461Y005275D01*
X008415Y005229D01*
X010170Y005275D02*
X010170Y005088D01*
X010263Y004995D01*
X010357Y005088D01*
X010357Y005275D01*
X010465Y005229D02*
X010465Y005042D01*
X010511Y004995D01*
X010605Y004995D01*
X010651Y005042D01*
X010759Y005042D02*
X010806Y004995D01*
X010899Y004995D01*
X010946Y005042D01*
X011054Y004948D02*
X011241Y004948D01*
X011349Y005042D02*
X011395Y004995D01*
X011489Y004995D01*
X011535Y005042D01*
X011535Y005229D01*
X011489Y005275D01*
X011395Y005275D01*
X011349Y005229D01*
X011349Y005042D01*
X011643Y005042D02*
X011643Y005275D01*
X011830Y005275D02*
X011830Y005042D01*
X011783Y004995D01*
X011690Y004995D01*
X011643Y005042D01*
X011938Y005275D02*
X012125Y005275D01*
X012031Y005275D02*
X012031Y004995D01*
X010946Y005229D02*
X010899Y005275D01*
X010806Y005275D01*
X010759Y005229D01*
X010759Y005042D01*
X010651Y005229D02*
X010605Y005275D01*
X010511Y005275D01*
X010465Y005229D01*
X010335Y007673D02*
X010149Y007673D01*
X009994Y007813D02*
X010041Y007860D01*
X010041Y007954D01*
X009994Y008000D01*
X009854Y008000D01*
X009854Y007720D01*
X009854Y007813D02*
X009994Y007813D01*
X009746Y007720D02*
X009746Y008000D01*
X009653Y007907D01*
X009559Y008000D01*
X009559Y007720D01*
X009451Y007720D02*
X009265Y007720D01*
X009265Y008000D01*
X009451Y008000D01*
X009358Y007860D02*
X009265Y007860D01*
X009157Y008000D02*
X008970Y008000D01*
X009063Y008000D02*
X009063Y007720D01*
X010443Y007767D02*
X010490Y007720D01*
X010583Y007720D01*
X010630Y007767D01*
X010738Y007767D02*
X010738Y007954D01*
X010785Y008000D01*
X010878Y008000D01*
X010925Y007954D01*
X010925Y007767D01*
X010878Y007720D01*
X010785Y007720D01*
X010738Y007767D01*
X010630Y007954D02*
X010583Y008000D01*
X010490Y008000D01*
X010443Y007954D01*
X010443Y007767D01*
X011033Y007720D02*
X011219Y007720D01*
X011327Y007720D02*
X011327Y008000D01*
X011467Y008000D01*
X011514Y007954D01*
X011514Y007767D01*
X011467Y007720D01*
X011327Y007720D01*
X011033Y007720D02*
X011033Y008000D01*
X009472Y010695D02*
X009472Y010975D01*
X009379Y010975D02*
X009566Y010975D01*
X009271Y010929D02*
X009224Y010975D01*
X009131Y010975D01*
X009084Y010929D01*
X009084Y010882D01*
X009131Y010835D01*
X009224Y010835D01*
X009271Y010788D01*
X009271Y010742D01*
X009224Y010695D01*
X009131Y010695D01*
X009084Y010742D01*
X008976Y010695D02*
X008790Y010695D01*
X008790Y010975D01*
X008976Y010975D01*
X008883Y010835D02*
X008790Y010835D01*
X008682Y010975D02*
X008495Y010975D01*
X008588Y010975D02*
X008588Y010695D01*
X010053Y014000D02*
X010239Y014000D01*
X010347Y014000D02*
X010534Y014000D01*
X010642Y014000D02*
X010782Y014000D01*
X010829Y014047D01*
X010829Y014234D01*
X010782Y014280D01*
X010642Y014280D01*
X010642Y014000D01*
X010441Y014140D02*
X010347Y014140D01*
X010347Y014280D02*
X010347Y014000D01*
X010347Y014280D02*
X010534Y014280D01*
X010937Y014187D02*
X011030Y014280D01*
X011030Y014000D01*
X010937Y014000D02*
X011123Y014000D01*
X010053Y014000D02*
X010053Y014280D01*
X013278Y013880D02*
X013278Y013600D01*
X013278Y013693D02*
X013418Y013693D01*
X013465Y013740D01*
X013465Y013834D01*
X013418Y013880D01*
X013278Y013880D01*
X013372Y013693D02*
X013465Y013600D01*
X013573Y013600D02*
X013760Y013600D01*
X013666Y013600D02*
X013666Y013880D01*
X013573Y013787D01*
X018305Y008680D02*
X018245Y008620D01*
X018245Y008560D01*
X018305Y008500D01*
X018425Y008500D01*
X018485Y008440D01*
X018485Y008380D01*
X018425Y008320D01*
X018305Y008320D01*
X018245Y008380D01*
X018305Y008680D02*
X018425Y008680D01*
X018485Y008620D01*
X018613Y008620D02*
X018613Y008380D01*
X018673Y008320D01*
X018793Y008320D01*
X018854Y008380D01*
X018854Y008500D01*
X018733Y008500D01*
X018613Y008620D02*
X018673Y008680D01*
X018793Y008680D01*
X018854Y008620D01*
X018982Y008620D02*
X019042Y008680D01*
X019162Y008680D01*
X019222Y008620D01*
X019222Y008560D01*
X019162Y008500D01*
X019222Y008440D01*
X019222Y008380D01*
X019162Y008320D01*
X019042Y008320D01*
X018982Y008380D01*
X019102Y008500D02*
X019162Y008500D01*
X016178Y000968D02*
X015991Y000688D01*
X015884Y000688D02*
X015790Y000782D01*
X015837Y000782D02*
X015697Y000782D01*
X015697Y000688D02*
X015697Y000968D01*
X015837Y000968D01*
X015884Y000922D01*
X015884Y000828D01*
X015837Y000782D01*
X015991Y000968D02*
X016178Y000688D01*
X015115Y000688D02*
X014928Y000968D01*
X014821Y000968D02*
X014634Y000968D01*
X014727Y000968D02*
X014727Y000688D01*
X014928Y000688D02*
X015115Y000968D01*
X014222Y000922D02*
X014222Y000735D01*
X014175Y000688D01*
X014035Y000688D01*
X014035Y000968D01*
X014175Y000968D01*
X014222Y000922D01*
X013927Y000968D02*
X013927Y000688D01*
X013740Y000968D01*
X013740Y000688D01*
X013633Y000735D02*
X013633Y000828D01*
X013539Y000828D01*
X013446Y000735D02*
X013446Y000922D01*
X013492Y000968D01*
X013586Y000968D01*
X013633Y000922D01*
X013633Y000735D02*
X013586Y000688D01*
X013492Y000688D01*
X013446Y000735D01*
X004806Y005743D02*
X004729Y005667D01*
X004652Y005667D01*
X004575Y005820D02*
X004806Y005820D01*
X004806Y005743D02*
X004806Y006127D01*
X004499Y006127D02*
X004499Y005897D01*
X004575Y005820D01*
X004345Y006127D02*
X004268Y006127D01*
X004115Y005973D01*
X004115Y005820D02*
X004115Y006127D01*
D13*
X004300Y009300D02*
X001350Y009300D01*
X001350Y011000D01*
X004300Y011000D01*
X004300Y009300D01*
D14*
X005350Y013050D02*
X006250Y013050D01*
X006350Y013150D01*
X006450Y013050D01*
X007250Y013050D01*
X007350Y013150D01*
X007450Y013050D01*
X008350Y013050D01*
X008350Y014050D01*
X007450Y014050D01*
X007350Y013950D01*
X007250Y014050D01*
X006450Y014050D01*
X006350Y013950D01*
X006250Y014050D01*
X005350Y014050D01*
X005350Y013050D01*
X009640Y008950D02*
X009640Y008810D01*
X009740Y008810D01*
X009740Y008950D01*
X010500Y008570D02*
X012700Y008570D01*
X010690Y005930D02*
X010530Y005930D01*
X010648Y002759D02*
X010591Y002702D01*
X010591Y002646D01*
X010648Y002589D01*
X010761Y002589D01*
X010818Y002532D01*
X010818Y002476D01*
X010761Y002419D01*
X010648Y002419D01*
X010591Y002476D01*
X010648Y002759D02*
X010761Y002759D01*
X010818Y002702D01*
X010959Y002759D02*
X010959Y002419D01*
X011073Y002532D01*
X011186Y002419D01*
X011186Y002759D01*
X011328Y002702D02*
X011384Y002759D01*
X011498Y002759D01*
X011554Y002702D01*
X011554Y002646D01*
X011328Y002419D01*
X011554Y002419D01*
X013350Y002050D02*
X013350Y001050D01*
X014250Y001050D01*
X014350Y001150D01*
X014450Y001050D01*
X015250Y001050D01*
X015350Y001150D01*
X015450Y001050D01*
X016350Y001050D01*
X016350Y002050D01*
X015450Y002050D01*
X015350Y001950D01*
X015250Y002050D01*
X014450Y002050D01*
X014350Y001950D01*
X014250Y002050D01*
X013350Y002050D01*
X012750Y006050D02*
X012752Y006157D01*
X012758Y006263D01*
X012768Y006369D01*
X012782Y006475D01*
X012800Y006580D01*
X012821Y006684D01*
X012847Y006788D01*
X012877Y006890D01*
X012910Y006991D01*
X012947Y007091D01*
X012988Y007190D01*
X013032Y007287D01*
X013080Y007382D01*
X013132Y007475D01*
X013187Y007566D01*
X013245Y007655D01*
X013307Y007742D01*
X013372Y007827D01*
X013440Y007909D01*
X013511Y007988D01*
X013585Y008065D01*
X013662Y008139D01*
X013741Y008210D01*
X013823Y008278D01*
X013908Y008343D01*
X013995Y008405D01*
X014084Y008463D01*
X014175Y008518D01*
X014268Y008570D01*
X014363Y008618D01*
X014460Y008662D01*
X014559Y008703D01*
X014659Y008740D01*
X014760Y008773D01*
X014862Y008803D01*
X014966Y008829D01*
X015070Y008850D01*
X015175Y008868D01*
X015281Y008882D01*
X015387Y008892D01*
X015493Y008898D01*
X015600Y008900D01*
X015707Y008898D01*
X015813Y008892D01*
X015919Y008882D01*
X016025Y008868D01*
X016130Y008850D01*
X016234Y008829D01*
X016338Y008803D01*
X016440Y008773D01*
X016541Y008740D01*
X016641Y008703D01*
X016740Y008662D01*
X016837Y008618D01*
X016932Y008570D01*
X017025Y008518D01*
X017116Y008463D01*
X017205Y008405D01*
X017292Y008343D01*
X017377Y008278D01*
X017459Y008210D01*
X017538Y008139D01*
X017615Y008065D01*
X017689Y007988D01*
X017760Y007909D01*
X017828Y007827D01*
X017893Y007742D01*
X017955Y007655D01*
X018013Y007566D01*
X018068Y007475D01*
X018120Y007382D01*
X018168Y007287D01*
X018212Y007190D01*
X018253Y007091D01*
X018290Y006991D01*
X018323Y006890D01*
X018353Y006788D01*
X018379Y006684D01*
X018400Y006580D01*
X018418Y006475D01*
X018432Y006369D01*
X018442Y006263D01*
X018448Y006157D01*
X018450Y006050D01*
X018448Y005943D01*
X018442Y005837D01*
X018432Y005731D01*
X018418Y005625D01*
X018400Y005520D01*
X018379Y005416D01*
X018353Y005312D01*
X018323Y005210D01*
X018290Y005109D01*
X018253Y005009D01*
X018212Y004910D01*
X018168Y004813D01*
X018120Y004718D01*
X018068Y004625D01*
X018013Y004534D01*
X017955Y004445D01*
X017893Y004358D01*
X017828Y004273D01*
X017760Y004191D01*
X017689Y004112D01*
X017615Y004035D01*
X017538Y003961D01*
X017459Y003890D01*
X017377Y003822D01*
X017292Y003757D01*
X017205Y003695D01*
X017116Y003637D01*
X017025Y003582D01*
X016932Y003530D01*
X016837Y003482D01*
X016740Y003438D01*
X016641Y003397D01*
X016541Y003360D01*
X016440Y003327D01*
X016338Y003297D01*
X016234Y003271D01*
X016130Y003250D01*
X016025Y003232D01*
X015919Y003218D01*
X015813Y003208D01*
X015707Y003202D01*
X015600Y003200D01*
X015493Y003202D01*
X015387Y003208D01*
X015281Y003218D01*
X015175Y003232D01*
X015070Y003250D01*
X014966Y003271D01*
X014862Y003297D01*
X014760Y003327D01*
X014659Y003360D01*
X014559Y003397D01*
X014460Y003438D01*
X014363Y003482D01*
X014268Y003530D01*
X014175Y003582D01*
X014084Y003637D01*
X013995Y003695D01*
X013908Y003757D01*
X013823Y003822D01*
X013741Y003890D01*
X013662Y003961D01*
X013585Y004035D01*
X013511Y004112D01*
X013440Y004191D01*
X013372Y004273D01*
X013307Y004358D01*
X013245Y004445D01*
X013187Y004534D01*
X013132Y004625D01*
X013080Y004718D01*
X013032Y004813D01*
X012988Y004910D01*
X012947Y005009D01*
X012910Y005109D01*
X012877Y005210D01*
X012847Y005312D01*
X012821Y005416D01*
X012800Y005520D01*
X012782Y005625D01*
X012768Y005731D01*
X012758Y005837D01*
X012752Y005943D01*
X012750Y006050D01*
X014600Y006050D02*
X014602Y006113D01*
X014608Y006175D01*
X014618Y006237D01*
X014631Y006299D01*
X014649Y006359D01*
X014670Y006418D01*
X014695Y006476D01*
X014724Y006532D01*
X014756Y006586D01*
X014791Y006638D01*
X014829Y006687D01*
X014871Y006735D01*
X014915Y006779D01*
X014963Y006821D01*
X015012Y006859D01*
X015064Y006894D01*
X015118Y006926D01*
X015174Y006955D01*
X015232Y006980D01*
X015291Y007001D01*
X015351Y007019D01*
X015413Y007032D01*
X015475Y007042D01*
X015537Y007048D01*
X015600Y007050D01*
X015663Y007048D01*
X015725Y007042D01*
X015787Y007032D01*
X015849Y007019D01*
X015909Y007001D01*
X015968Y006980D01*
X016026Y006955D01*
X016082Y006926D01*
X016136Y006894D01*
X016188Y006859D01*
X016237Y006821D01*
X016285Y006779D01*
X016329Y006735D01*
X016371Y006687D01*
X016409Y006638D01*
X016444Y006586D01*
X016476Y006532D01*
X016505Y006476D01*
X016530Y006418D01*
X016551Y006359D01*
X016569Y006299D01*
X016582Y006237D01*
X016592Y006175D01*
X016598Y006113D01*
X016600Y006050D01*
X016598Y005987D01*
X016592Y005925D01*
X016582Y005863D01*
X016569Y005801D01*
X016551Y005741D01*
X016530Y005682D01*
X016505Y005624D01*
X016476Y005568D01*
X016444Y005514D01*
X016409Y005462D01*
X016371Y005413D01*
X016329Y005365D01*
X016285Y005321D01*
X016237Y005279D01*
X016188Y005241D01*
X016136Y005206D01*
X016082Y005174D01*
X016026Y005145D01*
X015968Y005120D01*
X015909Y005099D01*
X015849Y005081D01*
X015787Y005068D01*
X015725Y005058D01*
X015663Y005052D01*
X015600Y005050D01*
X015537Y005052D01*
X015475Y005058D01*
X015413Y005068D01*
X015351Y005081D01*
X015291Y005099D01*
X015232Y005120D01*
X015174Y005145D01*
X015118Y005174D01*
X015064Y005206D01*
X015012Y005241D01*
X014963Y005279D01*
X014915Y005321D01*
X014871Y005365D01*
X014829Y005413D01*
X014791Y005462D01*
X014756Y005514D01*
X014724Y005568D01*
X014695Y005624D01*
X014670Y005682D01*
X014649Y005741D01*
X014631Y005801D01*
X014618Y005863D01*
X014608Y005925D01*
X014602Y005987D01*
X014600Y006050D01*
X012250Y006050D02*
X012252Y006166D01*
X012258Y006281D01*
X012268Y006396D01*
X012282Y006511D01*
X012300Y006625D01*
X012322Y006739D01*
X012347Y006852D01*
X012377Y006963D01*
X012410Y007074D01*
X012448Y007184D01*
X012489Y007292D01*
X012533Y007398D01*
X012582Y007504D01*
X012634Y007607D01*
X012689Y007708D01*
X012748Y007808D01*
X012811Y007905D01*
X012876Y008000D01*
X012945Y008093D01*
X013017Y008184D01*
X013092Y008271D01*
X013171Y008357D01*
X013252Y008439D01*
X013336Y008519D01*
X013422Y008595D01*
X013511Y008669D01*
X013603Y008740D01*
X013697Y008807D01*
X013793Y008871D01*
X013892Y008932D01*
X013992Y008989D01*
X014095Y009043D01*
X014199Y009093D01*
X014305Y009139D01*
X014412Y009182D01*
X014521Y009221D01*
X014631Y009257D01*
X014742Y009288D01*
X014855Y009316D01*
X014968Y009340D01*
X015082Y009360D01*
X015196Y009376D01*
X015311Y009388D01*
X015427Y009396D01*
X015542Y009400D01*
X015658Y009400D01*
X015773Y009396D01*
X015889Y009388D01*
X016004Y009376D01*
X016118Y009360D01*
X016232Y009340D01*
X016345Y009316D01*
X016458Y009288D01*
X016569Y009257D01*
X016679Y009221D01*
X016788Y009182D01*
X016895Y009139D01*
X017001Y009093D01*
X017105Y009043D01*
X017208Y008989D01*
X017308Y008932D01*
X017407Y008871D01*
X017503Y008807D01*
X017597Y008740D01*
X017689Y008669D01*
X017778Y008595D01*
X017864Y008519D01*
X017948Y008439D01*
X018029Y008357D01*
X018108Y008271D01*
X018183Y008184D01*
X018255Y008093D01*
X018324Y008000D01*
X018389Y007905D01*
X018452Y007808D01*
X018511Y007708D01*
X018566Y007607D01*
X018618Y007504D01*
X018667Y007398D01*
X018711Y007292D01*
X018752Y007184D01*
X018790Y007074D01*
X018823Y006963D01*
X018853Y006852D01*
X018878Y006739D01*
X018900Y006625D01*
X018918Y006511D01*
X018932Y006396D01*
X018942Y006281D01*
X018948Y006166D01*
X018950Y006050D01*
X018948Y005934D01*
X018942Y005819D01*
X018932Y005704D01*
X018918Y005589D01*
X018900Y005475D01*
X018878Y005361D01*
X018853Y005248D01*
X018823Y005137D01*
X018790Y005026D01*
X018752Y004916D01*
X018711Y004808D01*
X018667Y004702D01*
X018618Y004596D01*
X018566Y004493D01*
X018511Y004392D01*
X018452Y004292D01*
X018389Y004195D01*
X018324Y004100D01*
X018255Y004007D01*
X018183Y003916D01*
X018108Y003829D01*
X018029Y003743D01*
X017948Y003661D01*
X017864Y003581D01*
X017778Y003505D01*
X017689Y003431D01*
X017597Y003360D01*
X017503Y003293D01*
X017407Y003229D01*
X017308Y003168D01*
X017208Y003111D01*
X017105Y003057D01*
X017001Y003007D01*
X016895Y002961D01*
X016788Y002918D01*
X016679Y002879D01*
X016569Y002843D01*
X016458Y002812D01*
X016345Y002784D01*
X016232Y002760D01*
X016118Y002740D01*
X016004Y002724D01*
X015889Y002712D01*
X015773Y002704D01*
X015658Y002700D01*
X015542Y002700D01*
X015427Y002704D01*
X015311Y002712D01*
X015196Y002724D01*
X015082Y002740D01*
X014968Y002760D01*
X014855Y002784D01*
X014742Y002812D01*
X014631Y002843D01*
X014521Y002879D01*
X014412Y002918D01*
X014305Y002961D01*
X014199Y003007D01*
X014095Y003057D01*
X013992Y003111D01*
X013892Y003168D01*
X013793Y003229D01*
X013697Y003293D01*
X013603Y003360D01*
X013511Y003431D01*
X013422Y003505D01*
X013336Y003581D01*
X013252Y003661D01*
X013171Y003743D01*
X013092Y003829D01*
X013017Y003916D01*
X012945Y004007D01*
X012876Y004100D01*
X012811Y004195D01*
X012748Y004292D01*
X012689Y004392D01*
X012634Y004493D01*
X012582Y004596D01*
X012533Y004702D01*
X012489Y004808D01*
X012448Y004916D01*
X012410Y005026D01*
X012377Y005137D01*
X012347Y005248D01*
X012322Y005361D01*
X012300Y005475D01*
X012282Y005589D01*
X012268Y005704D01*
X012258Y005819D01*
X012252Y005934D01*
X012250Y006050D01*
X008350Y002050D02*
X007450Y002050D01*
X007350Y001950D01*
X007250Y002050D01*
X006450Y002050D01*
X006350Y001950D01*
X006250Y002050D01*
X005450Y002050D01*
X005350Y001950D01*
X005250Y002050D01*
X004450Y002050D01*
X004350Y001950D01*
X004250Y002050D01*
X003450Y002050D01*
X003350Y001950D01*
X003250Y002050D01*
X002350Y002050D01*
X002350Y001050D01*
X003250Y001050D01*
X003350Y001150D01*
X003450Y001050D01*
X004250Y001050D01*
X004350Y001150D01*
X004450Y001050D01*
X005250Y001050D01*
X005350Y001150D01*
X005450Y001050D01*
X006250Y001050D01*
X006350Y001150D01*
X006450Y001050D01*
X007250Y001050D01*
X007350Y001150D01*
X007450Y001050D01*
X008350Y001050D01*
X008350Y002050D01*
X013460Y011150D02*
X013460Y011290D01*
X013560Y011290D02*
X013560Y011150D01*
X013460Y011150D01*
X012700Y011530D02*
X011720Y011530D01*
X011480Y011530D01*
X010500Y011530D01*
X018926Y006450D02*
X019350Y006450D01*
X019350Y005650D01*
X018926Y005650D01*
D15*
X011620Y006550D02*
X011618Y006613D01*
X011612Y006676D01*
X011602Y006738D01*
X011588Y006800D01*
X011570Y006861D01*
X011549Y006920D01*
X011524Y006978D01*
X011496Y007034D01*
X011464Y007089D01*
X011429Y007142D01*
X011391Y007192D01*
X011349Y007240D01*
X011305Y007285D01*
X011258Y007327D01*
X011209Y007366D01*
X011157Y007403D01*
X011103Y007435D01*
X011048Y007465D01*
X010990Y007491D01*
X010931Y007514D01*
X010871Y007532D01*
X010809Y007548D01*
X010747Y007559D01*
X010684Y007566D01*
X010621Y007570D01*
X010558Y007569D01*
X010495Y007565D01*
X010433Y007557D01*
X010371Y007545D01*
X010309Y007529D01*
X010249Y007510D01*
X010191Y007486D01*
X010133Y007460D01*
X010078Y007429D01*
X010025Y007396D01*
X009973Y007359D01*
X009924Y007319D01*
X009878Y007276D01*
X009834Y007230D01*
X009794Y007182D01*
X009756Y007131D01*
X009721Y007079D01*
X009690Y007024D01*
X009662Y006967D01*
X009638Y006909D01*
X009618Y006849D01*
X009601Y006788D01*
X009588Y006726D01*
X009579Y006664D01*
X009573Y006601D01*
X009572Y006538D01*
X009575Y006474D01*
X009581Y006412D01*
X009591Y006349D01*
X009605Y006288D01*
X009623Y006227D01*
X009644Y006168D01*
X009670Y006110D01*
X011520Y006100D02*
X011543Y006154D01*
X011563Y006208D01*
X011580Y006264D01*
X011595Y006320D01*
X011606Y006377D01*
X011614Y006435D01*
X011618Y006492D01*
X011620Y006550D01*
D16*
X010249Y011433D02*
X009935Y011747D01*
X009935Y011590D02*
X010249Y011590D01*
X010249Y011747D02*
X009935Y011433D01*
X010092Y011433D02*
X010092Y011747D01*
D17*
X006600Y008550D02*
X005100Y008550D01*
X004600Y008550D02*
X003100Y008550D01*
X004600Y008550D02*
X004600Y007550D01*
X004600Y008550D02*
X004600Y009550D01*
X004600Y004800D02*
X004600Y004300D01*
X004350Y004550D02*
X004850Y004550D01*
D18*
X005100Y008050D02*
X005100Y008550D01*
X005100Y009050D01*
D19*
X009603Y013222D03*
X010422Y013550D03*
D20*
X002039Y004266D02*
X000911Y004266D01*
X000911Y004000D01*
X001316Y004046D02*
X001740Y004046D01*
X001755Y004044D01*
X001769Y004039D01*
X001781Y004032D01*
X001792Y004021D01*
X001799Y004009D01*
X001804Y003995D01*
X001806Y003980D01*
X001804Y003965D01*
X001799Y003951D01*
X001792Y003939D01*
X001781Y003928D01*
X001769Y003921D01*
X001755Y003916D01*
X001740Y003914D01*
X001395Y003914D01*
X001395Y003913D02*
X001380Y003911D01*
X001366Y003906D01*
X001354Y003899D01*
X001343Y003888D01*
X001336Y003876D01*
X001331Y003862D01*
X001329Y003847D01*
X001331Y003832D01*
X001336Y003818D01*
X001343Y003806D01*
X001354Y003795D01*
X001366Y003788D01*
X001380Y003783D01*
X001395Y003781D01*
X001555Y003781D01*
X001570Y003779D01*
X001584Y003774D01*
X001596Y003767D01*
X001607Y003756D01*
X001614Y003744D01*
X001619Y003730D01*
X001621Y003715D01*
X001619Y003700D01*
X001614Y003686D01*
X001607Y003674D01*
X001596Y003663D01*
X001584Y003656D01*
X001570Y003651D01*
X001555Y003649D01*
X001555Y003648D02*
X001395Y003648D01*
X001380Y003646D01*
X001366Y003641D01*
X001354Y003634D01*
X001343Y003623D01*
X001336Y003611D01*
X001331Y003597D01*
X001329Y003582D01*
X001331Y003567D01*
X001336Y003553D01*
X001343Y003541D01*
X001354Y003530D01*
X001366Y003523D01*
X001380Y003518D01*
X001395Y003516D01*
X001528Y003516D01*
X001543Y003514D01*
X001557Y003509D01*
X001569Y003502D01*
X001580Y003491D01*
X001587Y003479D01*
X001592Y003465D01*
X001594Y003450D01*
X001592Y003435D01*
X001587Y003421D01*
X001580Y003409D01*
X001569Y003398D01*
X001557Y003391D01*
X001543Y003386D01*
X001528Y003384D01*
X001528Y003383D02*
X001210Y003383D01*
X001195Y003381D01*
X001181Y003376D01*
X001169Y003369D01*
X001158Y003358D01*
X001151Y003346D01*
X001146Y003332D01*
X001144Y003317D01*
X001146Y003302D01*
X001151Y003288D01*
X001158Y003276D01*
X001169Y003265D01*
X001181Y003258D01*
X001195Y003253D01*
X001210Y003251D01*
X001714Y003251D01*
X001733Y003249D01*
X001752Y003244D01*
X001770Y003236D01*
X001786Y003224D01*
X001799Y003210D01*
X001810Y003194D01*
X001818Y003176D01*
X001822Y003157D01*
X001823Y003137D01*
X001820Y003118D01*
X002039Y003084D02*
X002039Y003350D01*
X002039Y003084D02*
X000911Y003084D01*
X000911Y003350D01*
X000471Y003675D02*
X000473Y003738D01*
X000479Y003801D01*
X000489Y003863D01*
X000503Y003925D01*
X000520Y003985D01*
X000542Y004045D01*
X000567Y004102D01*
X000595Y004159D01*
X000627Y004213D01*
X000663Y004265D01*
X000701Y004315D01*
X000743Y004362D01*
X000788Y004407D01*
X000835Y004449D01*
X000885Y004487D01*
X000937Y004523D01*
X000991Y004555D01*
X001048Y004583D01*
X001105Y004608D01*
X001165Y004630D01*
X001225Y004647D01*
X001287Y004661D01*
X001349Y004671D01*
X001412Y004677D01*
X001475Y004679D01*
X001538Y004677D01*
X001601Y004671D01*
X001663Y004661D01*
X001725Y004647D01*
X001785Y004630D01*
X001845Y004608D01*
X001902Y004583D01*
X001959Y004555D01*
X002013Y004523D01*
X002065Y004487D01*
X002115Y004449D01*
X002162Y004407D01*
X002207Y004362D01*
X002249Y004315D01*
X002287Y004265D01*
X002323Y004213D01*
X002355Y004159D01*
X002383Y004102D01*
X002408Y004045D01*
X002430Y003985D01*
X002447Y003925D01*
X002461Y003863D01*
X002471Y003801D01*
X002477Y003738D01*
X002479Y003675D01*
X002477Y003612D01*
X002471Y003549D01*
X002461Y003487D01*
X002447Y003425D01*
X002430Y003365D01*
X002408Y003305D01*
X002383Y003248D01*
X002355Y003191D01*
X002323Y003137D01*
X002287Y003085D01*
X002249Y003035D01*
X002207Y002988D01*
X002162Y002943D01*
X002115Y002901D01*
X002065Y002863D01*
X002013Y002827D01*
X001959Y002795D01*
X001902Y002767D01*
X001845Y002742D01*
X001785Y002720D01*
X001725Y002703D01*
X001663Y002689D01*
X001601Y002679D01*
X001538Y002673D01*
X001475Y002671D01*
X001412Y002673D01*
X001349Y002679D01*
X001287Y002689D01*
X001225Y002703D01*
X001165Y002720D01*
X001105Y002742D01*
X001048Y002767D01*
X000991Y002795D01*
X000937Y002827D01*
X000885Y002863D01*
X000835Y002901D01*
X000788Y002943D01*
X000743Y002988D01*
X000701Y003035D01*
X000663Y003085D01*
X000627Y003137D01*
X000595Y003191D01*
X000567Y003248D01*
X000542Y003305D01*
X000520Y003365D01*
X000503Y003425D01*
X000489Y003487D01*
X000479Y003549D01*
X000473Y003612D01*
X000471Y003675D01*
X000255Y003675D02*
X000257Y003745D01*
X000263Y003814D01*
X000273Y003883D01*
X000287Y003951D01*
X000304Y004019D01*
X000326Y004085D01*
X000351Y004150D01*
X000380Y004213D01*
X000413Y004275D01*
X000449Y004335D01*
X000488Y004392D01*
X000531Y004447D01*
X000576Y004500D01*
X000625Y004550D01*
X000676Y004597D01*
X000730Y004641D01*
X000786Y004682D01*
X000845Y004720D01*
X000906Y004754D01*
X000968Y004785D01*
X001032Y004812D01*
X001098Y004835D01*
X001165Y004855D01*
X001233Y004871D01*
X001301Y004883D01*
X001371Y004891D01*
X001440Y004895D01*
X001510Y004895D01*
X001579Y004891D01*
X001649Y004883D01*
X001717Y004871D01*
X001785Y004855D01*
X001852Y004835D01*
X001918Y004812D01*
X001982Y004785D01*
X002044Y004754D01*
X002105Y004720D01*
X002164Y004682D01*
X002220Y004641D01*
X002274Y004597D01*
X002325Y004550D01*
X002374Y004500D01*
X002419Y004447D01*
X002462Y004392D01*
X002501Y004335D01*
X002537Y004275D01*
X002570Y004213D01*
X002599Y004150D01*
X002624Y004085D01*
X002646Y004019D01*
X002663Y003951D01*
X002677Y003883D01*
X002687Y003814D01*
X002693Y003745D01*
X002695Y003675D01*
X002693Y003605D01*
X002687Y003536D01*
X002677Y003467D01*
X002663Y003399D01*
X002646Y003331D01*
X002624Y003265D01*
X002599Y003200D01*
X002570Y003137D01*
X002537Y003075D01*
X002501Y003015D01*
X002462Y002958D01*
X002419Y002903D01*
X002374Y002850D01*
X002325Y002800D01*
X002274Y002753D01*
X002220Y002709D01*
X002164Y002668D01*
X002105Y002630D01*
X002044Y002596D01*
X001982Y002565D01*
X001918Y002538D01*
X001852Y002515D01*
X001785Y002495D01*
X001717Y002479D01*
X001649Y002467D01*
X001579Y002459D01*
X001510Y002455D01*
X001440Y002455D01*
X001371Y002459D01*
X001301Y002467D01*
X001233Y002479D01*
X001165Y002495D01*
X001098Y002515D01*
X001032Y002538D01*
X000968Y002565D01*
X000906Y002596D01*
X000845Y002630D01*
X000786Y002668D01*
X000730Y002709D01*
X000676Y002753D01*
X000625Y002800D01*
X000576Y002850D01*
X000531Y002903D01*
X000488Y002958D01*
X000449Y003015D01*
X000413Y003075D01*
X000380Y003137D01*
X000351Y003200D01*
X000326Y003265D01*
X000304Y003331D01*
X000287Y003399D01*
X000273Y003467D01*
X000263Y003536D01*
X000257Y003605D01*
X000255Y003675D01*
X001130Y004232D02*
X001132Y004206D01*
X001138Y004180D01*
X001147Y004155D01*
X001160Y004131D01*
X001175Y004110D01*
X001194Y004091D01*
X001215Y004076D01*
X001239Y004063D01*
X001264Y004054D01*
X001290Y004048D01*
X001316Y004046D01*
X002039Y004000D02*
X002039Y004266D01*
M02*
