%
M48
M72
T01C0.0157
T02C0.0276
T03C0.0315
T04C0.0320
T05C0.0390
T06C0.0470
T07C0.0500
T08C0.1260
%
T01
X6600Y10550
X7350Y11300
X8000Y11150
X9350Y10800
X8600Y9550
X9450Y8850
X10900Y9150
X11350Y10675
X11100Y11200
X9100Y13050
X13550Y12800
X13550Y12150
X14200Y13550
X13750Y10450
X13150Y8450
X12600Y8300
X12600Y7050
X9100Y5175
X8600Y5550
X6850Y4550
X3600Y4550
T02
X806Y3675
X2144Y3675
T03
X9275Y11350
X9600Y4550
X9850Y3300
X10850Y3300
X11850Y3300
X11850Y4550
T04
X2850Y1550
X3850Y1550
X4850Y1550
X5850Y1550
X6850Y1550
X7850Y1550
X13850Y1550
X14850Y1550
X15850Y1550
X7850Y13550
X6850Y13550
X5850Y13550
T05
X10100Y6050
X11100Y6050
X10600Y7050
X17600Y10550
X17600Y11550
X18600Y11050
T06
X13630Y6050
X17570Y6050
T07
X4600Y11550
X4600Y3550
T08
X1281Y13148
X1281Y1731
X18210Y1731
X18210Y13148
M30
