G75*
%MOIN*%
%OFA0B0*%
%FSLAX24Y24*%
%IPPOS*%
%LPD*%
%AMOC8*
5,1,8,0,0,1.08239X$1,22.5*
%
%ADD10C,0.0000*%
%ADD11R,0.0460X0.0630*%
%ADD12R,0.0394X0.0551*%
%ADD13R,0.0512X0.0591*%
D10*
X000100Y000550D02*
X000100Y014330D01*
X019391Y014330D01*
X019391Y000550D01*
X000100Y000550D01*
X000651Y001731D02*
X000653Y001781D01*
X000659Y001831D01*
X000669Y001880D01*
X000683Y001928D01*
X000700Y001975D01*
X000721Y002020D01*
X000746Y002064D01*
X000774Y002105D01*
X000806Y002144D01*
X000840Y002181D01*
X000877Y002215D01*
X000917Y002245D01*
X000959Y002272D01*
X001003Y002296D01*
X001049Y002317D01*
X001096Y002333D01*
X001144Y002346D01*
X001194Y002355D01*
X001243Y002360D01*
X001294Y002361D01*
X001344Y002358D01*
X001393Y002351D01*
X001442Y002340D01*
X001490Y002325D01*
X001536Y002307D01*
X001581Y002285D01*
X001624Y002259D01*
X001665Y002230D01*
X001704Y002198D01*
X001740Y002163D01*
X001772Y002125D01*
X001802Y002085D01*
X001829Y002042D01*
X001852Y001998D01*
X001871Y001952D01*
X001887Y001904D01*
X001899Y001855D01*
X001907Y001806D01*
X001911Y001756D01*
X001911Y001706D01*
X001907Y001656D01*
X001899Y001607D01*
X001887Y001558D01*
X001871Y001510D01*
X001852Y001464D01*
X001829Y001420D01*
X001802Y001377D01*
X001772Y001337D01*
X001740Y001299D01*
X001704Y001264D01*
X001665Y001232D01*
X001624Y001203D01*
X001581Y001177D01*
X001536Y001155D01*
X001490Y001137D01*
X001442Y001122D01*
X001393Y001111D01*
X001344Y001104D01*
X001294Y001101D01*
X001243Y001102D01*
X001194Y001107D01*
X001144Y001116D01*
X001096Y001129D01*
X001049Y001145D01*
X001003Y001166D01*
X000959Y001190D01*
X000917Y001217D01*
X000877Y001247D01*
X000840Y001281D01*
X000806Y001318D01*
X000774Y001357D01*
X000746Y001398D01*
X000721Y001442D01*
X000700Y001487D01*
X000683Y001534D01*
X000669Y001582D01*
X000659Y001631D01*
X000653Y001681D01*
X000651Y001731D01*
X000651Y013148D02*
X000653Y013198D01*
X000659Y013248D01*
X000669Y013297D01*
X000683Y013345D01*
X000700Y013392D01*
X000721Y013437D01*
X000746Y013481D01*
X000774Y013522D01*
X000806Y013561D01*
X000840Y013598D01*
X000877Y013632D01*
X000917Y013662D01*
X000959Y013689D01*
X001003Y013713D01*
X001049Y013734D01*
X001096Y013750D01*
X001144Y013763D01*
X001194Y013772D01*
X001243Y013777D01*
X001294Y013778D01*
X001344Y013775D01*
X001393Y013768D01*
X001442Y013757D01*
X001490Y013742D01*
X001536Y013724D01*
X001581Y013702D01*
X001624Y013676D01*
X001665Y013647D01*
X001704Y013615D01*
X001740Y013580D01*
X001772Y013542D01*
X001802Y013502D01*
X001829Y013459D01*
X001852Y013415D01*
X001871Y013369D01*
X001887Y013321D01*
X001899Y013272D01*
X001907Y013223D01*
X001911Y013173D01*
X001911Y013123D01*
X001907Y013073D01*
X001899Y013024D01*
X001887Y012975D01*
X001871Y012927D01*
X001852Y012881D01*
X001829Y012837D01*
X001802Y012794D01*
X001772Y012754D01*
X001740Y012716D01*
X001704Y012681D01*
X001665Y012649D01*
X001624Y012620D01*
X001581Y012594D01*
X001536Y012572D01*
X001490Y012554D01*
X001442Y012539D01*
X001393Y012528D01*
X001344Y012521D01*
X001294Y012518D01*
X001243Y012519D01*
X001194Y012524D01*
X001144Y012533D01*
X001096Y012546D01*
X001049Y012562D01*
X001003Y012583D01*
X000959Y012607D01*
X000917Y012634D01*
X000877Y012664D01*
X000840Y012698D01*
X000806Y012735D01*
X000774Y012774D01*
X000746Y012815D01*
X000721Y012859D01*
X000700Y012904D01*
X000683Y012951D01*
X000669Y012999D01*
X000659Y013048D01*
X000653Y013098D01*
X000651Y013148D01*
X017580Y013148D02*
X017582Y013198D01*
X017588Y013248D01*
X017598Y013297D01*
X017612Y013345D01*
X017629Y013392D01*
X017650Y013437D01*
X017675Y013481D01*
X017703Y013522D01*
X017735Y013561D01*
X017769Y013598D01*
X017806Y013632D01*
X017846Y013662D01*
X017888Y013689D01*
X017932Y013713D01*
X017978Y013734D01*
X018025Y013750D01*
X018073Y013763D01*
X018123Y013772D01*
X018172Y013777D01*
X018223Y013778D01*
X018273Y013775D01*
X018322Y013768D01*
X018371Y013757D01*
X018419Y013742D01*
X018465Y013724D01*
X018510Y013702D01*
X018553Y013676D01*
X018594Y013647D01*
X018633Y013615D01*
X018669Y013580D01*
X018701Y013542D01*
X018731Y013502D01*
X018758Y013459D01*
X018781Y013415D01*
X018800Y013369D01*
X018816Y013321D01*
X018828Y013272D01*
X018836Y013223D01*
X018840Y013173D01*
X018840Y013123D01*
X018836Y013073D01*
X018828Y013024D01*
X018816Y012975D01*
X018800Y012927D01*
X018781Y012881D01*
X018758Y012837D01*
X018731Y012794D01*
X018701Y012754D01*
X018669Y012716D01*
X018633Y012681D01*
X018594Y012649D01*
X018553Y012620D01*
X018510Y012594D01*
X018465Y012572D01*
X018419Y012554D01*
X018371Y012539D01*
X018322Y012528D01*
X018273Y012521D01*
X018223Y012518D01*
X018172Y012519D01*
X018123Y012524D01*
X018073Y012533D01*
X018025Y012546D01*
X017978Y012562D01*
X017932Y012583D01*
X017888Y012607D01*
X017846Y012634D01*
X017806Y012664D01*
X017769Y012698D01*
X017735Y012735D01*
X017703Y012774D01*
X017675Y012815D01*
X017650Y012859D01*
X017629Y012904D01*
X017612Y012951D01*
X017598Y012999D01*
X017588Y013048D01*
X017582Y013098D01*
X017580Y013148D01*
X017580Y001731D02*
X017582Y001781D01*
X017588Y001831D01*
X017598Y001880D01*
X017612Y001928D01*
X017629Y001975D01*
X017650Y002020D01*
X017675Y002064D01*
X017703Y002105D01*
X017735Y002144D01*
X017769Y002181D01*
X017806Y002215D01*
X017846Y002245D01*
X017888Y002272D01*
X017932Y002296D01*
X017978Y002317D01*
X018025Y002333D01*
X018073Y002346D01*
X018123Y002355D01*
X018172Y002360D01*
X018223Y002361D01*
X018273Y002358D01*
X018322Y002351D01*
X018371Y002340D01*
X018419Y002325D01*
X018465Y002307D01*
X018510Y002285D01*
X018553Y002259D01*
X018594Y002230D01*
X018633Y002198D01*
X018669Y002163D01*
X018701Y002125D01*
X018731Y002085D01*
X018758Y002042D01*
X018781Y001998D01*
X018800Y001952D01*
X018816Y001904D01*
X018828Y001855D01*
X018836Y001806D01*
X018840Y001756D01*
X018840Y001706D01*
X018836Y001656D01*
X018828Y001607D01*
X018816Y001558D01*
X018800Y001510D01*
X018781Y001464D01*
X018758Y001420D01*
X018731Y001377D01*
X018701Y001337D01*
X018669Y001299D01*
X018633Y001264D01*
X018594Y001232D01*
X018553Y001203D01*
X018510Y001177D01*
X018465Y001155D01*
X018419Y001137D01*
X018371Y001122D01*
X018322Y001111D01*
X018273Y001104D01*
X018223Y001101D01*
X018172Y001102D01*
X018123Y001107D01*
X018073Y001116D01*
X018025Y001129D01*
X017978Y001145D01*
X017932Y001166D01*
X017888Y001190D01*
X017846Y001217D01*
X017806Y001247D01*
X017769Y001281D01*
X017735Y001318D01*
X017703Y001357D01*
X017675Y001398D01*
X017650Y001442D01*
X017629Y001487D01*
X017612Y001534D01*
X017598Y001582D01*
X017588Y001631D01*
X017582Y001681D01*
X017580Y001731D01*
D11*
X007185Y012354D03*
X006585Y012354D03*
X005985Y012354D03*
D12*
X009600Y001983D03*
X009226Y001117D03*
X009974Y001117D03*
D13*
X011101Y001300D03*
X011849Y001300D03*
M02*
