G75*
%MOIN*%
%OFA0B0*%
%FSLAX24Y24*%
%IPPOS*%
%LPD*%
%AMOC8*
5,1,8,0,0,1.08239X$1,22.5*
%
%ADD10C,0.0000*%
%ADD11C,0.0060*%
%ADD12C,0.0063*%
%ADD13C,0.0050*%
%ADD14C,0.0040*%
D10*
X000100Y000550D02*
X000100Y014330D01*
X019391Y014330D01*
X019391Y000550D01*
X000100Y000550D01*
X000651Y001731D02*
X000653Y001781D01*
X000659Y001831D01*
X000669Y001880D01*
X000683Y001928D01*
X000700Y001975D01*
X000721Y002020D01*
X000746Y002064D01*
X000774Y002105D01*
X000806Y002144D01*
X000840Y002181D01*
X000877Y002215D01*
X000917Y002245D01*
X000959Y002272D01*
X001003Y002296D01*
X001049Y002317D01*
X001096Y002333D01*
X001144Y002346D01*
X001194Y002355D01*
X001243Y002360D01*
X001294Y002361D01*
X001344Y002358D01*
X001393Y002351D01*
X001442Y002340D01*
X001490Y002325D01*
X001536Y002307D01*
X001581Y002285D01*
X001624Y002259D01*
X001665Y002230D01*
X001704Y002198D01*
X001740Y002163D01*
X001772Y002125D01*
X001802Y002085D01*
X001829Y002042D01*
X001852Y001998D01*
X001871Y001952D01*
X001887Y001904D01*
X001899Y001855D01*
X001907Y001806D01*
X001911Y001756D01*
X001911Y001706D01*
X001907Y001656D01*
X001899Y001607D01*
X001887Y001558D01*
X001871Y001510D01*
X001852Y001464D01*
X001829Y001420D01*
X001802Y001377D01*
X001772Y001337D01*
X001740Y001299D01*
X001704Y001264D01*
X001665Y001232D01*
X001624Y001203D01*
X001581Y001177D01*
X001536Y001155D01*
X001490Y001137D01*
X001442Y001122D01*
X001393Y001111D01*
X001344Y001104D01*
X001294Y001101D01*
X001243Y001102D01*
X001194Y001107D01*
X001144Y001116D01*
X001096Y001129D01*
X001049Y001145D01*
X001003Y001166D01*
X000959Y001190D01*
X000917Y001217D01*
X000877Y001247D01*
X000840Y001281D01*
X000806Y001318D01*
X000774Y001357D01*
X000746Y001398D01*
X000721Y001442D01*
X000700Y001487D01*
X000683Y001534D01*
X000669Y001582D01*
X000659Y001631D01*
X000653Y001681D01*
X000651Y001731D01*
X000651Y013148D02*
X000653Y013198D01*
X000659Y013248D01*
X000669Y013297D01*
X000683Y013345D01*
X000700Y013392D01*
X000721Y013437D01*
X000746Y013481D01*
X000774Y013522D01*
X000806Y013561D01*
X000840Y013598D01*
X000877Y013632D01*
X000917Y013662D01*
X000959Y013689D01*
X001003Y013713D01*
X001049Y013734D01*
X001096Y013750D01*
X001144Y013763D01*
X001194Y013772D01*
X001243Y013777D01*
X001294Y013778D01*
X001344Y013775D01*
X001393Y013768D01*
X001442Y013757D01*
X001490Y013742D01*
X001536Y013724D01*
X001581Y013702D01*
X001624Y013676D01*
X001665Y013647D01*
X001704Y013615D01*
X001740Y013580D01*
X001772Y013542D01*
X001802Y013502D01*
X001829Y013459D01*
X001852Y013415D01*
X001871Y013369D01*
X001887Y013321D01*
X001899Y013272D01*
X001907Y013223D01*
X001911Y013173D01*
X001911Y013123D01*
X001907Y013073D01*
X001899Y013024D01*
X001887Y012975D01*
X001871Y012927D01*
X001852Y012881D01*
X001829Y012837D01*
X001802Y012794D01*
X001772Y012754D01*
X001740Y012716D01*
X001704Y012681D01*
X001665Y012649D01*
X001624Y012620D01*
X001581Y012594D01*
X001536Y012572D01*
X001490Y012554D01*
X001442Y012539D01*
X001393Y012528D01*
X001344Y012521D01*
X001294Y012518D01*
X001243Y012519D01*
X001194Y012524D01*
X001144Y012533D01*
X001096Y012546D01*
X001049Y012562D01*
X001003Y012583D01*
X000959Y012607D01*
X000917Y012634D01*
X000877Y012664D01*
X000840Y012698D01*
X000806Y012735D01*
X000774Y012774D01*
X000746Y012815D01*
X000721Y012859D01*
X000700Y012904D01*
X000683Y012951D01*
X000669Y012999D01*
X000659Y013048D01*
X000653Y013098D01*
X000651Y013148D01*
X017580Y013148D02*
X017582Y013198D01*
X017588Y013248D01*
X017598Y013297D01*
X017612Y013345D01*
X017629Y013392D01*
X017650Y013437D01*
X017675Y013481D01*
X017703Y013522D01*
X017735Y013561D01*
X017769Y013598D01*
X017806Y013632D01*
X017846Y013662D01*
X017888Y013689D01*
X017932Y013713D01*
X017978Y013734D01*
X018025Y013750D01*
X018073Y013763D01*
X018123Y013772D01*
X018172Y013777D01*
X018223Y013778D01*
X018273Y013775D01*
X018322Y013768D01*
X018371Y013757D01*
X018419Y013742D01*
X018465Y013724D01*
X018510Y013702D01*
X018553Y013676D01*
X018594Y013647D01*
X018633Y013615D01*
X018669Y013580D01*
X018701Y013542D01*
X018731Y013502D01*
X018758Y013459D01*
X018781Y013415D01*
X018800Y013369D01*
X018816Y013321D01*
X018828Y013272D01*
X018836Y013223D01*
X018840Y013173D01*
X018840Y013123D01*
X018836Y013073D01*
X018828Y013024D01*
X018816Y012975D01*
X018800Y012927D01*
X018781Y012881D01*
X018758Y012837D01*
X018731Y012794D01*
X018701Y012754D01*
X018669Y012716D01*
X018633Y012681D01*
X018594Y012649D01*
X018553Y012620D01*
X018510Y012594D01*
X018465Y012572D01*
X018419Y012554D01*
X018371Y012539D01*
X018322Y012528D01*
X018273Y012521D01*
X018223Y012518D01*
X018172Y012519D01*
X018123Y012524D01*
X018073Y012533D01*
X018025Y012546D01*
X017978Y012562D01*
X017932Y012583D01*
X017888Y012607D01*
X017846Y012634D01*
X017806Y012664D01*
X017769Y012698D01*
X017735Y012735D01*
X017703Y012774D01*
X017675Y012815D01*
X017650Y012859D01*
X017629Y012904D01*
X017612Y012951D01*
X017598Y012999D01*
X017588Y013048D01*
X017582Y013098D01*
X017580Y013148D01*
X017580Y001731D02*
X017582Y001781D01*
X017588Y001831D01*
X017598Y001880D01*
X017612Y001928D01*
X017629Y001975D01*
X017650Y002020D01*
X017675Y002064D01*
X017703Y002105D01*
X017735Y002144D01*
X017769Y002181D01*
X017806Y002215D01*
X017846Y002245D01*
X017888Y002272D01*
X017932Y002296D01*
X017978Y002317D01*
X018025Y002333D01*
X018073Y002346D01*
X018123Y002355D01*
X018172Y002360D01*
X018223Y002361D01*
X018273Y002358D01*
X018322Y002351D01*
X018371Y002340D01*
X018419Y002325D01*
X018465Y002307D01*
X018510Y002285D01*
X018553Y002259D01*
X018594Y002230D01*
X018633Y002198D01*
X018669Y002163D01*
X018701Y002125D01*
X018731Y002085D01*
X018758Y002042D01*
X018781Y001998D01*
X018800Y001952D01*
X018816Y001904D01*
X018828Y001855D01*
X018836Y001806D01*
X018840Y001756D01*
X018840Y001706D01*
X018836Y001656D01*
X018828Y001607D01*
X018816Y001558D01*
X018800Y001510D01*
X018781Y001464D01*
X018758Y001420D01*
X018731Y001377D01*
X018701Y001337D01*
X018669Y001299D01*
X018633Y001264D01*
X018594Y001232D01*
X018553Y001203D01*
X018510Y001177D01*
X018465Y001155D01*
X018419Y001137D01*
X018371Y001122D01*
X018322Y001111D01*
X018273Y001104D01*
X018223Y001101D01*
X018172Y001102D01*
X018123Y001107D01*
X018073Y001116D01*
X018025Y001129D01*
X017978Y001145D01*
X017932Y001166D01*
X017888Y001190D01*
X017846Y001217D01*
X017806Y001247D01*
X017769Y001281D01*
X017735Y001318D01*
X017703Y001357D01*
X017675Y001398D01*
X017650Y001442D01*
X017629Y001487D01*
X017612Y001534D01*
X017598Y001582D01*
X017588Y001631D01*
X017582Y001681D01*
X017580Y001731D01*
D11*
X017480Y010980D02*
X017480Y011140D01*
X007535Y012054D02*
X007535Y012654D01*
X007533Y012671D01*
X007529Y012688D01*
X007522Y012704D01*
X007512Y012718D01*
X007499Y012731D01*
X007485Y012741D01*
X007469Y012748D01*
X007452Y012752D01*
X007435Y012754D01*
X005735Y012754D01*
X005718Y012752D01*
X005701Y012748D01*
X005685Y012741D01*
X005671Y012731D01*
X005658Y012718D01*
X005648Y012704D01*
X005641Y012688D01*
X005637Y012671D01*
X005635Y012654D01*
X005635Y012054D01*
X005637Y012037D01*
X005641Y012020D01*
X005648Y012004D01*
X005658Y011990D01*
X005671Y011977D01*
X005685Y011967D01*
X005701Y011960D01*
X005718Y011956D01*
X005735Y011954D01*
X007435Y011954D01*
X007452Y011956D01*
X007469Y011960D01*
X007485Y011967D01*
X007499Y011977D01*
X007512Y011990D01*
X007522Y012004D01*
X007529Y012020D01*
X007533Y012037D01*
X007535Y012054D01*
D12*
X017660Y010120D02*
X017718Y010094D01*
X017777Y010073D01*
X017838Y010055D01*
X017899Y010041D01*
X017962Y010031D01*
X018024Y010025D01*
X018088Y010022D01*
X018151Y010023D01*
X018214Y010029D01*
X018276Y010038D01*
X018338Y010051D01*
X018399Y010068D01*
X018459Y010088D01*
X018517Y010112D01*
X018574Y010140D01*
X018629Y010171D01*
X018681Y010206D01*
X018732Y010244D01*
X018780Y010284D01*
X018826Y010328D01*
X018869Y010374D01*
X018909Y010423D01*
X018946Y010475D01*
X018979Y010528D01*
X019010Y010583D01*
X019036Y010641D01*
X019060Y010699D01*
X019079Y010759D01*
X019095Y010821D01*
X019107Y010883D01*
X019115Y010945D01*
X019119Y011008D01*
X019120Y011071D01*
X019116Y011134D01*
X019109Y011197D01*
X019098Y011259D01*
X019082Y011321D01*
X019064Y011381D01*
X019041Y011440D01*
X019015Y011498D01*
X018985Y011553D01*
X018953Y011607D01*
X018916Y011659D01*
X018877Y011708D01*
X018835Y011755D01*
X018790Y011799D01*
X018742Y011841D01*
X018692Y011879D01*
X018639Y011914D01*
X018584Y011946D01*
X018528Y011974D01*
X018470Y011999D01*
X018411Y012020D01*
X018350Y012038D01*
X018288Y012052D01*
X018226Y012062D01*
X018163Y012068D01*
X018100Y012070D01*
X018042Y012068D01*
X017985Y012064D01*
X017927Y012056D01*
X017870Y012045D01*
X017814Y012030D01*
X017758Y012013D01*
X017704Y011993D01*
X017650Y011970D01*
D13*
X017125Y012010D02*
X017125Y011893D01*
X017067Y011835D01*
X016833Y011835D01*
X016775Y011893D01*
X016775Y012010D01*
X016833Y012068D01*
X017067Y012068D01*
X017125Y012010D01*
X017125Y012203D02*
X017125Y012437D01*
X017125Y012320D02*
X016775Y012320D01*
X016775Y011700D02*
X017125Y011700D01*
X016950Y011700D02*
X016950Y011467D01*
X016775Y011467D02*
X017125Y011467D01*
X016717Y011332D02*
X016717Y011098D01*
X016892Y010905D02*
X016892Y010730D01*
X016775Y010730D02*
X017125Y010730D01*
X017125Y010905D01*
X017067Y010963D01*
X016950Y010963D01*
X016892Y010905D01*
X016775Y010595D02*
X017125Y010595D01*
X017009Y010478D01*
X017125Y010362D01*
X016775Y010362D01*
X016775Y010227D02*
X016775Y009993D01*
X017125Y009993D01*
X017125Y010227D01*
X016950Y010110D02*
X016950Y009993D01*
X017125Y009859D02*
X017125Y009625D01*
X017125Y009742D02*
X016775Y009742D01*
X009825Y002925D02*
X009591Y002925D01*
X009708Y002925D02*
X009708Y002575D01*
X009457Y002575D02*
X009223Y002575D01*
X009340Y002575D02*
X009340Y002925D01*
X009457Y002809D01*
X010688Y001694D02*
X010688Y000906D01*
X012262Y000906D01*
X012262Y001694D01*
X010688Y001694D01*
X011210Y001858D02*
X011210Y001975D01*
X011268Y002034D01*
X011327Y002034D01*
X011443Y001975D01*
X011443Y002150D01*
X011210Y002150D01*
X011210Y001858D02*
X011268Y001800D01*
X011385Y001800D01*
X011443Y001858D01*
X011578Y001800D02*
X011695Y001917D01*
X011636Y001917D02*
X011812Y001917D01*
X011812Y001800D02*
X011812Y002150D01*
X011636Y002150D01*
X011578Y002092D01*
X011578Y001975D01*
X011636Y001917D01*
D14*
X006876Y011416D02*
X006756Y011416D01*
X006696Y011476D01*
X006696Y011536D01*
X006756Y011596D01*
X006876Y011596D01*
X006936Y011656D01*
X006936Y011716D01*
X006876Y011776D01*
X006756Y011776D01*
X006696Y011716D01*
X006448Y011776D02*
X006328Y011776D01*
X006388Y011776D02*
X006388Y011476D01*
X006448Y011416D01*
X006508Y011416D01*
X006568Y011476D01*
X006200Y011416D02*
X005959Y011416D01*
X006080Y011416D02*
X006080Y011776D01*
X006200Y011656D01*
X006876Y011416D02*
X006936Y011476D01*
M02*
